<?xml version="1.0" encoding="utf-8"?>
<!-- Generator: Adobe Illustrator 16.0.0, SVG Export Plug-In . SVG Version: 6.00 Build 0)  -->
<!DOCTYPE svg PUBLIC "-//W3C//DTD SVG 1.1//EN" "http://www.w3.org/Graphics/SVG/1.1/DTD/svg11.dtd">
<svg version="1.1" xmlns="http://www.w3.org/2000/svg" xmlns:xlink="http://www.w3.org/1999/xlink"
    xml:space="preserve" x="0px" y="0px">

  <symbol viewBox="0 0 80 45.119" id="logo-telstra">
    <path fill="#45AFE3" d="M22.482,12.767l-1.121,6.591c-0.232,1.186-1.013,1.507-1.706,1.507H14.46l2.188-12.071
      c-2.185-0.999-4.417-1.652-6.194-1.652c-1.691,0-3.065,0.458-3.977,1.555c-0.644,0.777-0.964,1.738-0.964,2.883
      c0,3.432,2.699,8.193,7.319,12.077c4.118,3.435,8.649,5.356,11.947,5.356c1.644,0,2.971-0.504,3.842-1.509
      c0.686-0.779,0.959-1.788,0.959-2.931C29.581,21.237,26.862,16.564,22.482,12.767"/>
    <path fill="#293688" d="M13.155,0c-0.825,0-1.511,0.553-1.693,1.422l-0.731,3.978h6.534L14.46,20.863h5.195
      c0.693,0,1.474-0.319,1.706-1.507l2.375-13.957h4.699c0.829,0,1.512-0.549,1.695-1.417L30.864,0H13.155z"/>
    <path fill="#293688" d="M39.014,12.948h-1.211c-0.157,0-0.299-0.142-0.299-0.299V7.817c0-0.157,0.142-0.299,0.299-0.299h1.211
      c0.84,0,1.429,0.612,1.429,1.43v0.008c0,0.589-0.275,1.005-0.612,1.195c0.33,0.188,0.675,0.597,0.675,1.232v0.071
      C40.505,12.28,39.838,12.948,39.014,12.948 M39.847,8.948c0-0.503-0.338-0.833-0.833-0.833h-0.912v1.736h0.912
      c0.471,0,0.833-0.368,0.833-0.896V8.948z M39.909,11.384c0-0.511-0.416-0.935-0.895-0.935h-0.912v1.902h0.912
      c0.495,0,0.895-0.401,0.895-0.896V11.384z"/>
    <path fill="#293688" d="M43.123,12.986h-0.077c-0.826,0-1.494-0.651-1.494-1.484V7.77c0-0.196,0.147-0.299,0.299-0.299
      c0.149,0,0.298,0.103,0.298,0.299v3.732c0,0.496,0.401,0.896,0.897,0.896h0.077c0.496,0,0.888-0.399,0.888-0.896V7.77
      c0-0.196,0.149-0.299,0.299-0.299s0.3,0.103,0.3,0.299v3.732C44.609,12.335,43.941,12.986,43.123,12.986"/>
    <path fill="#293688" d="M47.257,12.986h-0.071c-0.81,0-1.556-0.495-1.556-1.444c0-0.197,0.148-0.291,0.299-0.291
      c0.148,0,0.299,0.087,0.299,0.299c0,0.558,0.455,0.848,0.965,0.848h0.08c0.62,0,0.889-0.306,0.889-0.872
      c0-0.644-0.457-0.825-0.937-1.092c-0.755-0.424-1.517-0.613-1.517-1.619c0-0.762,0.652-1.344,1.478-1.344h0.078
      c0.755,0,1.43,0.535,1.43,1.258c0,0.196-0.133,0.291-0.282,0.291c-0.148,0-0.291-0.095-0.314-0.283
      c-0.038-0.385-0.369-0.668-0.848-0.668h-0.072c-0.651,0-0.863,0.472-0.863,0.746c0,0.574,0.486,0.747,0.911,0.976
      c0.786,0.424,1.532,0.676,1.532,1.743C48.757,12.438,48.207,12.986,47.257,12.986"/>
    <path fill="#293688" d="M50.197,12.986c-0.148,0-0.297-0.094-0.297-0.29V7.77c0-0.196,0.148-0.299,0.297-0.299
      c0.15,0,0.3,0.103,0.3,0.299v4.927C50.497,12.893,50.347,12.986,50.197,12.986"/>
    <path fill="#293688" d="M54.551,12.986c-0.118,0-0.291,0-0.409-0.258L52.43,8.854v3.843c0,0.196-0.149,0.29-0.299,0.29
      c-0.15,0-0.3-0.094-0.3-0.29V7.777c0-0.213,0.174-0.307,0.354-0.307s0.306,0.04,0.401,0.252l1.705,3.89V7.77
      c0-0.196,0.156-0.299,0.306-0.299s0.291,0.103,0.291,0.299v4.872C54.889,12.9,54.732,12.986,54.551,12.986"/>
    <path fill="#293688" d="M58.856,12.948h-2.459c-0.158,0-0.3-0.143-0.3-0.299V7.816c0-0.156,0.142-0.299,0.3-0.299h2.459
      c0.212,0,0.298,0.15,0.298,0.299c0,0.15-0.086,0.299-0.298,0.299h-2.161v1.729h1.501c0.196,0,0.298,0.148,0.298,0.298
      c0,0.15-0.102,0.298-0.298,0.298h-1.501v1.91h2.161c0.212,0,0.298,0.149,0.298,0.299S59.068,12.948,58.856,12.948"/>
    <path fill="#293688" d="M61.521,12.986H61.45c-0.81,0-1.556-0.495-1.556-1.444c0-0.197,0.149-0.291,0.299-0.291
      c0.148,0,0.299,0.087,0.299,0.299c0,0.558,0.455,0.848,0.966,0.848h0.079c0.621,0,0.888-0.306,0.888-0.872
      c0-0.644-0.456-0.825-0.935-1.092c-0.756-0.424-1.516-0.613-1.516-1.619c0-0.762,0.651-1.344,1.476-1.344h0.079
      c0.754,0,1.43,0.535,1.43,1.258c0,0.196-0.133,0.291-0.283,0.291c-0.148,0-0.291-0.095-0.314-0.283
      c-0.038-0.385-0.368-0.668-0.848-0.668h-0.072c-0.651,0-0.863,0.472-0.863,0.746c0,0.574,0.486,0.747,0.912,0.976
      c0.785,0.424,1.531,0.676,1.531,1.743C63.021,12.438,62.472,12.986,61.521,12.986"/>
    <path fill="#293688" d="M65.597,12.986h-0.07c-0.811,0-1.556-0.495-1.556-1.444c0-0.197,0.149-0.291,0.298-0.291
      s0.299,0.087,0.299,0.299c0,0.558,0.456,0.848,0.967,0.848h0.078c0.621,0,0.889-0.306,0.889-0.872c0-0.644-0.457-0.825-0.936-1.092
      C64.812,10.01,64.05,9.82,64.05,8.814c0-0.762,0.65-1.344,1.477-1.344h0.078c0.754,0,1.43,0.535,1.43,1.258
      c0,0.196-0.133,0.291-0.281,0.291c-0.15,0-0.293-0.095-0.315-0.283c-0.039-0.385-0.369-0.668-0.849-0.668h-0.071
      c-0.651,0-0.864,0.472-0.864,0.746c0,0.574,0.488,0.747,0.912,0.976c0.785,0.424,1.532,0.676,1.532,1.743
      C67.098,12.438,66.548,12.986,65.597,12.986"/>
    <path fill="#293688" d="M40.536,20.062c-0.116,0-0.233-0.055-0.282-0.204l-0.345-1.132h-1.941l-0.354,1.132
      c-0.047,0.149-0.157,0.204-0.275,0.204c-0.182,0-0.307-0.126-0.307-0.284c0-0.022,0.009-0.053,0.016-0.093l1.532-4.92
      c0.047-0.149,0.197-0.22,0.354-0.22c0.165,0,0.314,0.07,0.362,0.22l1.532,4.92c0.008,0.04,0.016,0.07,0.016,0.093
      C40.843,19.936,40.718,20.062,40.536,20.062 M38.934,15.613l-0.778,2.516h1.564L38.934,15.613z"/>
    <path fill="#293688" d="M45.36,19.834c-0.024,0.117-0.11,0.228-0.291,0.228h-0.142c-0.164,0-0.266-0.118-0.291-0.22l-0.943-4.031
      l-0.941,4.031c-0.024,0.117-0.127,0.22-0.291,0.22h-0.142c-0.165,0-0.267-0.11-0.291-0.228l-1.052-4.928
      c-0.04-0.196,0.086-0.361,0.298-0.361c0.126,0,0.243,0.07,0.283,0.235l0.849,3.953l0.926-3.976c0.032-0.125,0.118-0.213,0.299-0.213
      h0.127c0.164,0,0.267,0.088,0.298,0.213l0.927,3.976l0.85-3.953c0.031-0.165,0.157-0.235,0.283-0.235
      c0.211,0,0.338,0.165,0.299,0.361L45.36,19.834z"/>
    <path fill="#293688" d="M50.083,20.062c-0.117,0-0.236-0.055-0.283-0.204l-0.346-1.132h-1.941l-0.353,1.132
      c-0.048,0.149-0.157,0.204-0.274,0.204c-0.182,0-0.307-0.126-0.307-0.284c0-0.022,0.007-0.053,0.016-0.093l1.531-4.92
      c0.047-0.149,0.197-0.22,0.354-0.22c0.166,0,0.314,0.07,0.361,0.22l1.532,4.92c0.009,0.04,0.017,0.07,0.017,0.093
      C50.39,19.936,50.265,20.062,50.083,20.062 M48.48,15.613l-0.777,2.516h1.562L48.48,15.613z"/>
    <path fill="#293688" d="M53.29,17.602l0.976,2.036c0.022,0.038,0.031,0.087,0.031,0.133c0,0.166-0.127,0.291-0.314,0.291
      c-0.094,0-0.197-0.039-0.26-0.165l-1.068-2.247h-0.803v2.121c0,0.196-0.147,0.291-0.297,0.291c-0.15,0-0.3-0.095-0.3-0.291v-4.88
      c0-0.156,0.142-0.299,0.3-0.299h1.319c0.825,0,1.493,0.668,1.493,1.493v0.071C54.367,16.848,53.925,17.413,53.29,17.602
       M53.769,16.085c0-0.495-0.4-0.895-0.896-0.895h-1.022v1.86h1.053c0.496,0,0.865-0.4,0.865-0.895V16.085z"/>
    <path fill="#293688" d="M57.039,20.022h-1.272c-0.157,0-0.3-0.143-0.3-0.298v-4.834c0-0.156,0.143-0.299,0.3-0.299h1.272
      c0.817,0,1.485,0.668,1.485,1.485v2.451C58.524,19.355,57.856,20.022,57.039,20.022 M57.935,16.085c0-0.495-0.393-0.895-0.889-0.895
      h-0.981v4.234h0.974c0.495,0,0.896-0.4,0.896-0.896V16.085z"/>
    <path fill="#293688" d="M61.134,20.062h-0.072c-0.809,0-1.555-0.495-1.555-1.445c0-0.198,0.148-0.291,0.298-0.291
      s0.3,0.086,0.3,0.298c0,0.559,0.455,0.85,0.967,0.85h0.078c0.62,0,0.887-0.307,0.887-0.873c0-0.645-0.455-0.824-0.935-1.092
      c-0.754-0.425-1.517-0.613-1.517-1.619c0-0.763,0.652-1.344,1.477-1.344h0.08c0.754,0,1.43,0.534,1.43,1.257
      c0,0.196-0.134,0.291-0.283,0.291s-0.291-0.095-0.314-0.282c-0.039-0.386-0.369-0.668-0.85-0.668h-0.069
      c-0.651,0-0.864,0.471-0.864,0.746c0,0.573,0.487,0.746,0.911,0.975c0.785,0.425,1.532,0.676,1.532,1.745
      C62.634,19.511,62.083,20.062,61.134,20.062"/>
    <path fill="#293688" d="M40.349,5.627c-0.12,0-0.239-0.056-0.286-0.207l-0.35-1.144h-1.962L37.393,5.42
      c-0.047,0.151-0.158,0.207-0.277,0.207c-0.183,0-0.31-0.127-0.31-0.286c0-0.023,0.008-0.056,0.016-0.096l1.549-4.973
      c0.048-0.15,0.198-0.222,0.357-0.222c0.166,0,0.318,0.071,0.365,0.222l1.549,4.973c0.008,0.04,0.018,0.072,0.018,0.096
      C40.66,5.5,40.531,5.627,40.349,5.627 M38.728,1.131l-0.786,2.541h1.58L38.728,1.131z"/>
    <path fill="#293688" d="M43.121,5.627h-0.08c-0.834,0-1.51-0.659-1.51-1.502V0.353c0-0.198,0.151-0.302,0.303-0.302
      c0.15,0,0.302,0.104,0.302,0.302v3.772c0,0.501,0.405,0.906,0.905,0.906h0.08c0.5,0,0.896-0.405,0.896-0.906V0.353
      c0-0.198,0.152-0.302,0.303-0.302s0.301,0.104,0.301,0.302v3.772C44.621,4.968,43.947,5.627,43.121,5.627"/>
    <path fill="#293688" d="M47.298,5.627h-0.072c-0.818,0-1.572-0.5-1.572-1.462c0-0.198,0.15-0.294,0.302-0.294
      c0.149,0,0.302,0.088,0.302,0.302c0,0.564,0.461,0.858,0.977,0.858h0.08c0.627,0,0.896-0.311,0.896-0.883
      c0-0.65-0.46-0.833-0.945-1.104c-0.762-0.429-1.533-0.619-1.533-1.636c0-0.771,0.66-1.358,1.494-1.358h0.08
      c0.763,0,1.444,0.54,1.444,1.271c0,0.197-0.134,0.294-0.284,0.294c-0.152,0-0.296-0.097-0.318-0.286
      c-0.041-0.39-0.375-0.675-0.858-0.675h-0.071c-0.66,0-0.873,0.476-0.873,0.754c0,0.58,0.491,0.755,0.92,0.984
      c0.795,0.43,1.549,0.684,1.549,1.765C48.814,5.071,48.259,5.627,47.298,5.627"/>
    <path fill="#293688" d="M51.904,0.702h-0.873v4.631c0,0.198-0.152,0.294-0.303,0.294s-0.301-0.096-0.301-0.294V0.702h-0.875
      c-0.199,0-0.301-0.151-0.301-0.301c0-0.151,0.102-0.304,0.301-0.304h2.352c0.197,0,0.302,0.152,0.302,0.304
      C52.206,0.551,52.101,0.702,51.904,0.702"/>
    <path fill="#293688" d="M55.017,3.141l0.984,2.057c0.024,0.041,0.032,0.088,0.032,0.136c0,0.167-0.127,0.294-0.317,0.294
      c-0.096,0-0.199-0.04-0.263-0.167l-1.08-2.272h-0.81v2.146c0,0.198-0.151,0.294-0.303,0.294c-0.15,0-0.302-0.096-0.302-0.294V0.4
      c0-0.158,0.144-0.303,0.302-0.303h1.334c0.834,0,1.51,0.676,1.51,1.51v0.071C56.105,2.378,55.661,2.95,55.017,3.141 M55.501,1.607
      c0-0.5-0.404-0.905-0.906-0.905h-1.031v1.883h1.063c0.501,0,0.874-0.405,0.874-0.906V1.607z"/>
    <path fill="#293688" d="M60.203,5.627c-0.119,0-0.237-0.056-0.285-0.207l-0.35-1.144h-1.962L57.248,5.42
      c-0.047,0.151-0.157,0.207-0.276,0.207c-0.183,0-0.31-0.127-0.31-0.286c0-0.023,0.008-0.056,0.015-0.096l1.549-4.973
      c0.048-0.15,0.199-0.222,0.358-0.222c0.166,0,0.318,0.071,0.365,0.222l1.549,4.973c0.008,0.04,0.016,0.072,0.016,0.096
      C60.513,5.5,60.386,5.627,60.203,5.627 M58.583,1.131l-0.786,2.541h1.579L58.583,1.131z"/>
    <path fill="#293688" d="M63.857,5.587h-2.168c-0.16,0-0.303-0.144-0.303-0.301V0.353c0-0.199,0.15-0.302,0.303-0.302
      c0.15,0,0.301,0.103,0.301,0.302v4.63h1.867c0.198,0,0.301,0.151,0.301,0.304C64.158,5.436,64.055,5.587,63.857,5.587"/>
    <path fill="#293688" d="M65.413,5.627c-0.151,0-0.302-0.096-0.302-0.294v-4.98c0-0.198,0.15-0.302,0.302-0.302
      s0.302,0.104,0.302,0.302v4.98C65.714,5.531,65.564,5.627,65.413,5.627"/>
    <path fill="#293688" d="M70.209,5.627c-0.119,0-0.237-0.056-0.285-0.207l-0.35-1.144h-1.962L67.255,5.42
      c-0.048,0.151-0.158,0.207-0.277,0.207c-0.184,0-0.311-0.127-0.311-0.286c0-0.023,0.008-0.056,0.016-0.096l1.549-4.973
      c0.047-0.15,0.199-0.222,0.357-0.222c0.167,0,0.318,0.071,0.365,0.222l1.549,4.973c0.008,0.04,0.016,0.072,0.016,0.096
      C70.519,5.5,70.392,5.627,70.209,5.627 M68.589,1.131l-0.785,2.541h1.58L68.589,1.131z"/>
    <path fill="#293688" d="M74.141,5.627c-0.119,0-0.294,0-0.413-0.262l-1.73-3.916v3.884c0,0.198-0.152,0.294-0.303,0.294
      s-0.302-0.096-0.302-0.294V0.36c0-0.215,0.175-0.31,0.356-0.31c0.184,0,0.311,0.04,0.406,0.254l1.723,3.933V0.353
      c0-0.198,0.16-0.302,0.311-0.302c0.151,0,0.294,0.104,0.294,0.302v4.925C74.483,5.539,74.324,5.627,74.141,5.627"/>
    <path fill="#293688" d="M27.121,40.978c-0.142,0-0.253,0.052-0.329,0.127c-0.226,0.22-0.218,0.616-0.218,0.986
      c0,0.369-0.008,0.767,0.218,0.986c0.076,0.075,0.187,0.126,0.329,0.126c0.142,0,0.253-0.051,0.329-0.126
      c0.226-0.22,0.218-0.617,0.218-0.986c0-0.37,0.008-0.767-0.218-0.986C27.374,41.029,27.263,40.978,27.121,40.978"/>
    <path fill="#293688" d="M79.167,39.249H0.833C0.373,39.249,0,39.622,0,40.082v4.204c0,0.46,0.373,0.833,0.833,0.833h78.334
      c0.459,0,0.832-0.373,0.832-0.833v-4.204C80,39.622,79.626,39.249,79.167,39.249 M25.816,43.459h-1.595v-0.287l1.075-1.364
      c0.099-0.13,0.145-0.252,0.145-0.394c0-0.279-0.157-0.44-0.436-0.44c-0.237,0-0.452,0.135-0.452,0.495h-0.336
      c0-0.475,0.314-0.798,0.784-0.798c0.291,0,0.517,0.122,0.651,0.315c0.08,0.118,0.122,0.251,0.122,0.425
      c0,0.216-0.08,0.396-0.226,0.581l-0.903,1.151h1.171V43.459z M27.695,43.278c-0.13,0.133-0.31,0.231-0.574,0.231
      s-0.444-0.099-0.574-0.231c-0.268-0.279-0.314-0.661-0.314-1.188s0.046-0.912,0.314-1.19c0.13-0.135,0.31-0.229,0.574-0.229
      s0.444,0.095,0.574,0.229c0.268,0.278,0.314,0.664,0.314,1.19S27.963,42.999,27.695,43.278 M29.562,43.459h-0.333v-2.351
      l-0.632,0.476V41.21l0.651-0.484h0.314V43.459z M31.987,43.255c-0.137,0.156-0.34,0.259-0.62,0.259c-0.26,0-0.47-0.091-0.616-0.235
      c-0.149-0.149-0.233-0.354-0.245-0.606h0.326c0.007,0.174,0.061,0.299,0.149,0.391c0.088,0.09,0.214,0.145,0.383,0.145
      c0.183,0,0.306-0.071,0.386-0.177c0.088-0.114,0.13-0.271,0.13-0.456c0-0.189-0.05-0.354-0.149-0.468
      c-0.084-0.095-0.199-0.153-0.367-0.153c-0.18,0-0.349,0.083-0.44,0.24H30.56l0.073-1.468h1.469v0.304h-1.19l-0.042,0.873
      c0.119-0.178,0.333-0.248,0.559-0.248c0.233,0,0.413,0.087,0.543,0.224c0.157,0.165,0.237,0.409,0.237,0.681
      C32.209,42.846,32.137,43.085,31.987,43.255 M36.169,43.459h-0.508l-1.175-1.915v1.915H34v-2.788h0.524l1.159,1.888v-1.888h0.486
      V43.459z M38.515,43.211c-0.207,0.212-0.524,0.299-0.857,0.299c-0.287,0-0.59-0.079-0.812-0.287
      c-0.16-0.148-0.283-0.386-0.283-0.648h0.505c0,0.138,0.061,0.26,0.142,0.342c0.115,0.118,0.298,0.15,0.455,0.15
      c0.188,0,0.368-0.04,0.471-0.15c0.061-0.067,0.107-0.134,0.107-0.267c0-0.204-0.153-0.3-0.321-0.33
      c-0.184-0.036-0.421-0.044-0.601-0.075c-0.375-0.063-0.689-0.314-0.689-0.778c0-0.221,0.096-0.405,0.237-0.551
      c0.18-0.181,0.479-0.295,0.796-0.295c0.291,0,0.574,0.095,0.758,0.271c0.161,0.158,0.272,0.362,0.275,0.595h-0.505
      c-0.004-0.099-0.053-0.204-0.118-0.275c-0.088-0.094-0.268-0.149-0.414-0.149c-0.153,0-0.329,0.035-0.44,0.153
      c-0.057,0.063-0.092,0.134-0.092,0.236c0,0.181,0.115,0.274,0.276,0.303c0.172,0.027,0.413,0.047,0.589,0.07
      c0.406,0.059,0.747,0.33,0.747,0.806C38.741,42.889,38.649,43.074,38.515,43.211 M41.56,43.459h-0.493L40.5,41.536l-0.565,1.923
      H39.44l-0.547-2.788h0.471l0.379,1.939l0.558-1.896h0.413l0.548,1.896l0.386-1.939H42.1L41.56,43.459z M45.08,41.132h-1.381v0.746
      h1.232v0.46h-1.232v1.121h-0.494v-2.788h1.875V41.132z M45.891,43.459h-0.485v-2.044h0.485V43.459z M45.902,41.132h-0.513v-0.508
      h0.513V41.132z M48.149,43.459h-0.479v-1.254c0-0.24-0.075-0.386-0.328-0.386c-0.168,0-0.279,0.11-0.344,0.26
      c-0.069,0.161-0.065,0.373-0.065,0.546v0.834h-0.479v-2.045h0.402l0.035,0.264c0.117-0.216,0.355-0.314,0.585-0.314
      c0.425,0,0.674,0.307,0.674,0.731V43.459z M50.41,43.435c-0.08,0.036-0.123,0.056-0.238,0.056c-0.205,0-0.32-0.134-0.336-0.287
      c-0.092,0.165-0.321,0.307-0.604,0.307c-0.476,0-0.719-0.307-0.719-0.641c0-0.389,0.294-0.613,0.673-0.642l0.586-0.043v-0.126
      c0-0.192-0.064-0.321-0.337-0.321c-0.222,0-0.353,0.102-0.364,0.291h-0.463c0.027-0.46,0.383-0.665,0.827-0.665
      c0.34,0,0.631,0.11,0.746,0.417c0.05,0.13,0.057,0.274,0.057,0.413v0.759c0,0.094,0.031,0.129,0.111,0.129
      c0.03,0,0.062-0.007,0.062-0.007V43.435z M51.531,43.455c-0.096,0.02-0.115,0.027-0.211,0.027c-0.324,0-0.543-0.161-0.543-0.551
      v-2.315h0.482v2.232c0,0.118,0.025,0.197,0.191,0.197c0.041,0,0.053-0.004,0.08-0.004V43.455z M52.399,43.459h-0.485v-2.044h0.485
      V43.459z M52.41,41.132h-0.513v-0.508h0.513V41.132z M54.335,43.274c-0.162,0.165-0.41,0.235-0.682,0.235
      c-0.253,0-0.479-0.075-0.643-0.235c-0.115-0.114-0.211-0.283-0.211-0.477h0.447c0,0.091,0.047,0.189,0.107,0.24
      c0.077,0.062,0.165,0.091,0.303,0.091c0.16,0,0.405-0.036,0.405-0.26c0-0.118-0.076-0.197-0.198-0.216
      c-0.177-0.028-0.375-0.039-0.552-0.079c-0.272-0.06-0.455-0.287-0.455-0.546c0-0.209,0.084-0.354,0.203-0.46
      c0.146-0.13,0.354-0.205,0.604-0.205c0.236,0,0.479,0.079,0.623,0.239c0.107,0.118,0.176,0.271,0.176,0.422H54.01
      c0-0.079-0.035-0.143-0.081-0.193c-0.057-0.059-0.16-0.094-0.26-0.094c-0.069,0-0.135,0-0.207,0.03
      c-0.084,0.036-0.153,0.11-0.153,0.218c0,0.145,0.123,0.188,0.229,0.204c0.181,0.023,0.23,0.027,0.426,0.059
      c0.312,0.051,0.543,0.256,0.543,0.578C54.507,43.023,54.438,43.168,54.335,43.274 M56.022,43.431
      c-0.134,0.035-0.269,0.056-0.409,0.056c-0.402,0-0.601-0.236-0.601-0.629v-1.038h-0.364v-0.405h0.364v-0.52l0.478-0.12v0.64h0.502
      v0.405H55.49v0.995c0,0.156,0.069,0.224,0.223,0.224c0.1,0,0.18-0.004,0.31-0.021V43.431z"/>
    <path fill="#293688" d="M48.978,42.857c0,0.157,0.135,0.255,0.283,0.255c0.299,0,0.51-0.165,0.51-0.467v-0.095l-0.506,0.04
      C49.121,42.602,48.978,42.691,48.978,42.857"/>
  </symbol>


  <symbol viewBox="0 0 83.978 39.15" id="logo-brw">
    <path fill="#00475F" d="M37.837,7.264c3.478-0.93,7.29-0.538,10.653,1.402c1.509,0.871,2.791,1.979,3.832,3.247h5.159
      C56.8,10.685,55.964,9.533,55,8.477l1.552-1.578l1.838,1.801l1.59-1.623l-5.4-5.294l-1.591,1.622l1.834,1.799l-1.57,1.596
      c-0.807-0.676-1.675-1.3-2.618-1.845c-2.293-1.323-4.753-2.09-7.226-2.351L43,1.056c-0.37-1.381-1.75-1.011-1.75-1.011L30.646,2.908
      c-1.379,0.369-1.01,1.749-1.01,1.749l0.454,1.717c0.007,0.026,0.016,0.046,0.024,0.07c-1.771,1.397-3.315,3.145-4.513,5.218
      c-0.048,0.083-0.09,0.168-0.136,0.251h5.158C32.523,9.594,35.062,8.01,37.837,7.264"/>
    <path fill="#00475F" d="M53.315,28.359c-1.954,3.077-4.914,5.141-8.21,6.026c-3.478,0.93-7.289,0.538-10.653-1.402
      c-2.033-1.175-3.653-2.775-4.826-4.624h-4.854c1.523,3.383,4.079,6.338,7.537,8.335c6.768,3.906,14.988,3.003,20.712-1.643
      c0.195,0.214,0.396,0.326,0.396,0.326l1.549,0.871c1.246,0.695,1.941-0.553,1.941-0.553l4.072-7.337H53.315z"/>
    <path fill="#010101" d="M63.253,29.661c0.074-0.891,0.637-1.41,1.49-1.41c0.674,0,1.234,0.35,1.234,1.118
      c0,1.087-1.531,1.409-2.109,2.02h1.828l-0.147,0.647h-2.751c0.064-0.929,0.769-1.305,1.494-1.691
      c0.361-0.207,0.934-0.435,0.934-0.928c0-0.371-0.255-0.52-0.572-0.52c-0.408,0-0.669,0.355-0.684,0.764H63.253z"/>
    <path fill="#010101" d="M69.82,28.251c0.838,0,1.241,0.572,1.241,1.404c0,1.081-0.573,2.454-1.817,2.454
      c-0.849,0-1.178-0.668-1.178-1.426C68.066,29.635,68.638,28.251,69.82,28.251 M69.337,31.489c0.759,0,0.971-1.447,0.971-1.951
      c0-0.37-0.154-0.667-0.541-0.667c-0.747,0-0.948,1.447-0.948,1.966C68.819,31.192,68.925,31.489,69.337,31.489"/>
    <path fill="#010101" d="M74.866,32.035h-0.8l0.508-2.406h-0.906l0.122-0.566c0.558-0.027,0.976-0.159,1.246-0.737h0.614
      L74.866,32.035z"/>
    <path fill="#010101" d="M81.035,28.945h-1.58l-0.244,0.79l0.011,0.01c0.165-0.143,0.34-0.233,0.728-0.233
      c0.545,0,1.032,0.42,1.032,1.108c0,0.922-0.662,1.489-1.548,1.489c-0.779,0-1.277-0.36-1.303-1.155h0.726
      c0.005,0.366,0.271,0.535,0.63,0.535c0.409,0,0.742-0.323,0.742-0.779c0-0.414-0.227-0.631-0.63-0.631
      c-0.261,0-0.446,0.096-0.595,0.313h-0.678l0.646-2.067h2.195L81.035,28.945z"/>
    <path fill="#060B09" d="M9.173,11.547H8.239V8.735h0.854c0.945,0,1.436,0.562,1.436,1.436C10.529,11.195,10.178,11.547,9.173,11.547
       M9.837,8.449C10.409,8.279,11,7.734,11,7.018c0-0.878-0.711-1.545-2.158-1.545c-0.352,0-0.683,0.021-1.063,0.021
      c-0.821,0-0.921-0.05-1.021-0.05c-0.07,0-0.151,0.068-0.151,0.168c0,0.107,0.081,0.177,0.151,0.177c0.1,0,0.2-0.01,0.681-0.01v5.829
      c-0.481,0-0.581-0.011-0.681-0.011c-0.07,0-0.151,0.069-0.151,0.178c0,0.107,0.081,0.167,0.151,0.167c0.1,0,0.2-0.05,1.021-0.05
      c0.45,0,0.872,0.039,1.435,0.039c1.456,0,2.197-0.695,2.197-1.76C11.411,9.287,10.71,8.606,9.837,8.449 M8.671,8.38H8.239V5.838
      h0.512c1.006,0,1.357,0.323,1.357,1.18C10.108,8.098,9.566,8.38,8.671,8.38"/>
    <path fill="#060B09" d="M14.683,10.181c0,1.275,0.24,1.831,1.039,1.831c0.33,0,0.642-0.229,0.642-0.575
      c0-0.081-0.08-0.161-0.161-0.161c-0.09,0-0.161,0.08-0.161,0.171c0,0.19-0.139,0.288-0.32,0.288c-0.17,0-0.25-0.148-0.25-0.389
      c0-0.262,0.05-0.612,0.05-1.165c0-0.663-0.479-1.535-1.381-1.723c0.582-0.099,1.261-0.661,1.261-1.438
      c0-0.886-0.699-1.533-2.155-1.533c-0.402,0-0.673,0.01-1.062,0.01c-0.821,0-0.921-0.05-1.022-0.05c-0.07,0-0.15,0.07-0.15,0.168
      c0,0.108,0.08,0.177,0.15,0.177c0.101,0,0.201-0.01,0.682-0.01v5.824c-0.481,0-0.581-0.01-0.682-0.01c-0.07,0-0.15,0.069-0.15,0.178
      s0.08,0.167,0.15,0.167c0.101,0,0.201-0.049,1.022-0.049h0.12c0.821,0,0.922,0.049,1.022,0.049c0.07,0,0.151-0.059,0.151-0.167
      s-0.081-0.178-0.151-0.178c-0.1,0-0.201,0.01-0.683,0.01V8.734h0.804C14.422,8.734,14.683,9.308,14.683,10.181 M14.512,7.021
      c0,0.826-0.382,1.36-1.265,1.36h-0.603V5.843h0.603C14.251,5.843,14.512,6.175,14.512,7.021"/>
    <path fill="#060B09" d="M19.182,9.276l0.953,2.723c0.03,0.061,0.06,0.101,0.17,0.101s0.14-0.03,0.17-0.101l2.275-6.221h0.07
      c0.451,0,0.491,0.01,0.591,0.01c0.071,0,0.151-0.068,0.151-0.177c0-0.098-0.08-0.167-0.151-0.167c-0.1,0-0.14,0.049-0.841,0.049
      h-0.05c-0.651,0-0.681-0.049-0.781-0.049c-0.07,0-0.151,0.069-0.151,0.167c0,0.108,0.081,0.177,0.151,0.177
      c0.1,0,0.13-0.01,0.551-0.01h0.07l-1.864,5.096L19.573,8.21l0.892-2.432h0.071c0.391,0,0.421,0.01,0.521,0.01
      c0.07,0,0.15-0.068,0.15-0.177c0-0.098-0.08-0.167-0.15-0.167c-0.1,0-0.12,0.049-0.782,0.049H18.31
      c-0.622,0-0.662-0.049-0.762-0.049c-0.08,0-0.151,0.069-0.151,0.167c0,0.108,0.071,0.177,0.151,0.177c0.1,0,0.21-0.01,0.401-0.01
      l1.043,2.955l-0.782,2.141l-1.764-5.096c0.19,0,0.31,0.01,0.41,0.01c0.08,0,0.15-0.068,0.15-0.177c0-0.098-0.07-0.167-0.15-0.167
      c-0.1,0-0.14,0.049-0.76,0.049h-0.07c-0.821,0-0.921-0.049-1.021-0.049c-0.07,0-0.15,0.069-0.15,0.167
      c0,0.108,0.08,0.177,0.15,0.177c0.1,0,0.19-0.01,0.651-0.01l2.193,6.221c0.02,0.061,0.06,0.101,0.16,0.101
      c0.12,0,0.151-0.03,0.18-0.101L19.182,9.276z M18.731,5.778h1.333l-0.681,1.88L18.731,5.778z"/>
    <path fill="#060B09" d="M22.334,12.125c0.282,0,0.511-0.229,0.511-0.51c0-0.282-0.229-0.512-0.511-0.512
      c-0.282,0-0.51,0.229-0.51,0.512C21.825,11.896,22.053,12.125,22.334,12.125"/>
    <path fill="#ED2224" d="M35.208,16.593l-0.22,1.017h-2.201l0.187-0.83c0.05-0.203,0.067-0.372,0.067-0.542
      c0-0.457-0.288-0.711-0.863-0.711c-0.423,0-0.694,0.152-0.88,0.508c-0.22,0.39-0.356,0.897-0.356,1.287
      c0,0.439,0.119,0.728,0.407,0.965l1.387,1.168c0.508,0.439,0.83,0.761,0.999,1.065c0.203,0.373,0.305,0.813,0.305,1.32
      c0,0.559-0.203,1.507-0.491,2.337c-0.508,1.455-1.557,2.132-3.335,2.132c-1.963,0-3.064-0.795-3.064-2.183
      c0-0.305,0.017-0.542,0.187-1.236l0.253-1.05h2.184l-0.237,0.965c-0.118,0.491-0.169,0.881-0.169,1.067
      c0,0.457,0.389,0.745,0.982,0.745c0.389,0,0.728-0.153,0.897-0.424c0.085-0.152,0.169-0.355,0.254-0.609
      c0.186-0.592,0.271-1.066,0.271-1.388c0-0.457-0.22-0.881-0.694-1.253l-1.185-0.948c-0.17-0.135-0.305-0.237-0.407-0.338
      c-0.186-0.169-0.389-0.457-0.507-0.694c-0.17-0.339-0.254-0.711-0.254-1.134c0-0.982,0.304-1.998,0.846-2.76
      c0.576-0.829,1.49-1.219,2.793-1.219c1.93,0,2.945,0.678,2.945,1.963C35.309,16.051,35.276,16.305,35.208,16.593"/>
    <polygon fill="#ED2224" points="42.419,15.831 40.203,15.831 37.833,26.055 35.615,26.055 37.984,15.831 35.784,15.831
      36.173,14.104 42.809,14.104 "/>
    <path fill="#ED2224" d="M55.691,16.745l-0.389,1.693c-0.305,1.303-0.762,1.794-1.964,2.03l0.862,5.587h-2.25l-0.694-5.332h-0.83
      l-1.235,5.332H46.99l2.76-11.951h2.928c0.576,0,0.967,0,1.221,0.017c0.541,0.018,1.015,0.187,1.319,0.457
      c0.372,0.339,0.558,0.796,0.558,1.405C55.775,16.237,55.742,16.491,55.691,16.745 M52.576,15.814H51.56l-0.727,3.114h0.88
      c0.644,0,0.948-0.085,1.151-0.287c0.066-0.068,0.135-0.169,0.186-0.271c0.102-0.22,0.152-0.322,0.271-0.846l0.168-0.729
      c0.018-0.102,0.052-0.236,0.052-0.321C53.542,16,53.271,15.814,52.576,15.814"/>
    <polygon fill="#ED2224" points="62.953,15.831 60.736,15.831 58.367,26.055 56.148,26.055 58.518,15.831 56.317,15.831
      56.707,14.104 63.342,14.104 "/>
    <polygon fill="#ED2224" points="69.267,15.916 65.678,15.916 65.036,18.726 68.421,18.726 67.998,20.537 64.613,20.537
      63.765,24.21 67.523,24.21 67.101,26.056 61.142,26.056 63.902,14.104 69.691,14.104 "/>
    <path fill="#ED2224" d="M76.581,16.745l-0.39,1.693c-0.305,1.303-0.762,1.794-1.963,2.03l0.863,5.587h-2.252l-0.693-5.332h-0.83
      l-1.235,5.332h-2.2l2.758-11.951h2.93c0.574,0,0.964,0,1.218,0.017c0.542,0.018,1.017,0.187,1.321,0.457
      c0.371,0.339,0.558,0.796,0.558,1.405C76.665,16.237,76.63,16.491,76.581,16.745 M73.466,15.814H72.45l-0.728,3.114h0.881
      c0.643,0,0.947-0.085,1.15-0.287c0.068-0.068,0.135-0.169,0.187-0.271c0.102-0.22,0.151-0.322,0.271-0.846l0.17-0.729
      c0.016-0.102,0.051-0.236,0.051-0.321C74.431,16,74.16,15.814,73.466,15.814"/>
    <path fill="#ED2224" d="M83.876,16.593l-0.221,1.017h-2.201l0.187-0.83c0.051-0.203,0.067-0.372,0.067-0.542
      c0-0.457-0.287-0.711-0.862-0.711c-0.423,0-0.694,0.152-0.88,0.508c-0.221,0.39-0.356,0.897-0.356,1.287
      c0,0.439,0.119,0.728,0.406,0.965l1.389,1.168c0.507,0.439,0.829,0.761,0.998,1.065c0.203,0.373,0.306,0.813,0.306,1.32
      c0,0.559-0.203,1.507-0.492,2.337c-0.508,1.455-1.557,2.132-3.334,2.132c-1.963,0-3.064-0.795-3.064-2.183
      c0-0.305,0.018-0.542,0.188-1.236l0.254-1.05h2.183l-0.237,0.965c-0.117,0.491-0.168,0.881-0.168,1.067
      c0,0.457,0.389,0.745,0.981,0.745c0.39,0,0.728-0.153,0.897-0.424c0.084-0.152,0.168-0.355,0.254-0.609
      c0.186-0.592,0.271-1.066,0.271-1.388c0-0.457-0.22-0.881-0.694-1.253l-1.185-0.948c-0.17-0.135-0.306-0.237-0.407-0.338
      c-0.186-0.169-0.389-0.457-0.507-0.694c-0.17-0.339-0.254-0.711-0.254-1.134c0-0.982,0.304-1.998,0.846-2.76
      c0.576-0.829,1.49-1.219,2.794-1.219c1.93,0,2.945,0.678,2.945,1.963C83.978,16.051,83.944,16.305,83.876,16.593"/>
    <polygon fill="#A62E2F" points="8.193,15.949 4.554,15.949 3.86,18.945 7.279,18.945 6.873,20.724 3.453,20.724 2.218,26.056
      0,26.056 2.759,14.104 8.616,14.104 "/>
    <path fill="#A62E2F" d="M12.628,26.056h-2.166l0.135-1.947H8.566l-0.745,1.947H5.553l4.875-11.951h2.522L12.628,26.056z
       M9.226,22.264h1.523l0.373-5.129L9.226,22.264z"/>
    <path fill="#A62E2F" d="M21.245,16.593l-0.22,1.017h-2.201l0.187-0.83c0.05-0.203,0.067-0.372,0.067-0.542
      c0-0.457-0.288-0.711-0.863-0.711c-0.423,0-0.694,0.152-0.88,0.508c-0.22,0.39-0.356,0.897-0.356,1.287
      c0,0.439,0.119,0.728,0.407,0.965l1.387,1.168c0.508,0.439,0.83,0.761,0.999,1.065c0.203,0.373,0.305,0.813,0.305,1.32
      c0,0.559-0.203,1.507-0.491,2.337c-0.508,1.455-1.557,2.132-3.335,2.132c-1.963,0-3.064-0.795-3.064-2.183
      c0-0.305,0.017-0.542,0.187-1.236l0.253-1.05h2.184l-0.237,0.965c-0.118,0.491-0.169,0.881-0.169,1.067
      c0,0.457,0.389,0.745,0.982,0.745c0.389,0,0.728-0.153,0.897-0.424c0.085-0.152,0.169-0.355,0.254-0.609
      c0.186-0.592,0.271-1.066,0.271-1.388c0-0.457-0.22-0.881-0.694-1.253l-1.185-0.948c-0.17-0.135-0.305-0.237-0.407-0.338
      c-0.186-0.169-0.389-0.457-0.507-0.694c-0.17-0.339-0.254-0.711-0.254-1.134c0-0.982,0.304-1.998,0.846-2.76
      c0.576-0.829,1.49-1.219,2.793-1.219c1.93,0,2.945,0.678,2.945,1.963C21.346,16.051,21.312,16.305,21.245,16.593"/>
    <polygon fill="#A62E2F" points="28.456,15.831 26.239,15.831 23.869,26.055 21.651,26.055 24.021,15.831 21.82,15.831 22.21,14.104
      28.845,14.104 "/>
    <path fill="#00475F" d="M44.28,28.436l-1.242-6.016c0.322-0.361,0.518-0.813,0.556-1.303c0.046-0.593-0.142-1.166-0.527-1.617
      c-0.387-0.451-0.925-0.725-1.517-0.771c-1.222-0.092-2.292,0.822-2.387,2.044c-0.045,0.593,0.142,1.166,0.528,1.617
      c0.36,0.419,0.853,0.684,1.397,0.754L44.28,28.436z M40.663,20.89c0.029-0.376,0.345-0.663,0.715-0.663
      c0.019,0,0.038,0.001,0.056,0.003c0.191,0.015,0.365,0.104,0.49,0.248c0.125,0.146,0.185,0.331,0.17,0.522v0.001
      c-0.014,0.19-0.103,0.365-0.248,0.489c-0.146,0.125-0.331,0.185-0.522,0.171c-0.192-0.016-0.366-0.104-0.49-0.249
      C40.709,21.266,40.648,21.081,40.663,20.89"/>
    <path fill="#ED2224" d="M41.088,23.146c-0.136-0.019-0.269-0.049-0.398-0.09l-1.223,2.999h2.268l0.43-1.125L41.088,23.146z"/>
    <path fill="#ED2224" d="M44.341,14.104l-1.978,4.848c0.265,0.133,0.505,0.315,0.703,0.548c0.367,0.428,0.551,0.968,0.531,1.527
      l1.438-3.893l-0.372,5.129h-1.499c-0.04,0.054-0.082,0.105-0.126,0.156l0.348,1.688h1.125l-0.136,1.947h2.167l0.321-11.951H44.341z"
      />
  </symbol>

  <symbol viewBox="0 0 50 43.532" id="logo-deloitte">
    <path fill="#253370" d="M14.191,7.35c-0.231,0.079-0.472,0.149-0.714,0.199c-0.283,0.057-0.576,0.089-0.874,0.089
      c-0.962,0-1.716-0.321-1.839-1.083h4.106c0.03-0.147,0.084-0.501,0.084-0.874c0-1.734-0.862-3.325-3.063-3.325
      c-2.137,0-3.275,1.676-3.275,3.554c0,2.165,1.514,3.404,3.627,3.404c0.538,0,0.932-0.048,1.256-0.114
      c0.337-0.068,0.709-0.18,1.023-0.32L14.191,7.35z M11.854,3.91c0.814,0,1.06,0.743,1.06,1.152H10.72
      C10.72,4.483,11.122,3.91,11.854,3.91"/>
    <path fill="#253370" d="M46.066,7.35c-0.231,0.079-0.473,0.149-0.714,0.199c-0.283,0.057-0.576,0.089-0.874,0.089
      c-0.962,0-1.716-0.321-1.839-1.083h4.105c0.03-0.147,0.084-0.501,0.084-0.874c0-1.734-0.863-3.325-3.062-3.325
      c-2.138,0-3.275,1.676-3.275,3.554c0,2.165,1.514,3.404,3.627,3.404c0.538,0,0.931-0.048,1.256-0.114
      c0.337-0.068,0.709-0.18,1.023-0.32L46.066,7.35z M43.729,3.91c0.813,0,1.06,0.743,1.06,1.152h-2.193
      C42.596,4.483,42.997,3.91,43.729,3.91"/>
    <rect x="15.96" y="0.149" fill="#253370" width="2.226" height="9.021"/>
    <path fill="#253370" d="M22.628,9.312c1.736,0,3.496-1.094,3.496-3.536c0-1.455-0.862-3.409-3.388-3.409
      c-2.599,0-3.547,1.893-3.547,3.52C19.189,7.927,20.606,9.312,22.628,9.312 M22.657,7.662c-0.723,0-1.197-0.715-1.197-1.821
      c0-0.881,0.317-1.821,1.206-1.821c0.855,0,1.16,0.976,1.16,1.812C23.826,6.943,23.363,7.662,22.657,7.662"/>
    <rect x="27.092" y="2.513" fill="#253370" width="2.227" height="6.658"/>
    <rect x="27.092" y="0.151" fill="#253370" width="2.227" height="1.729"/>
    <path fill="#253370" d="M31.081,0.701v1.812h-0.855v1.649h0.855V6.89c0,1.5,0.687,2.418,2.252,2.418c0.294,0,0.625-0.03,0.931-0.076
      c0.283-0.042,0.533-0.094,0.643-0.129c0.002-0.002-0.016-1.739-0.016-1.746c-0.072,0.024-0.577,0.11-0.761,0.11
      c-0.18,0-0.445-0.023-0.636-0.219c-0.136-0.138-0.232-0.363-0.232-0.73V4.162H34.7V2.513h-1.438V0.455L31.081,0.701z"/>
    <path fill="#253370" d="M36.232,0.701v1.812h-0.854v1.649h0.854V6.89c0,1.5,0.687,2.418,2.251,2.418c0.294,0,0.626-0.03,0.932-0.076
      c0.282-0.042,0.532-0.094,0.643-0.129c0.002-0.002-0.016-1.739-0.016-1.746c-0.072,0.024-0.576,0.11-0.762,0.11
      c-0.179,0-0.444-0.023-0.635-0.219c-0.136-0.138-0.233-0.363-0.233-0.73V4.162h1.438V2.513h-1.438V0.455L36.232,0.701z"/>
    <path fill="#80BD41" d="M47.537,8.084c0-0.681,0.552-1.231,1.231-1.231C49.449,6.853,50,7.403,50,8.084s-0.551,1.231-1.231,1.231
      C48.089,9.315,47.537,8.765,47.537,8.084"/>
    <path fill="#253370" d="M3.221,7.383C3.128,7.391,2.989,7.395,2.9,7.395H2.194c0.001-0.001,0-5.545,0-5.545
      c0.244-0.022,0.554-0.037,0.762-0.037c1.294,0,2.673,0.84,2.673,2.78C5.629,6.616,4.333,7.292,3.221,7.383 M0,9.181h2.52
      c0.17,0,0.376-0.004,0.538-0.012c3.448-0.18,4.883-2.221,4.883-4.576C7.941,1.648,5.956,0,2.529,0C1.65,0,0.868,0.029,0,0.104V9.181
      z"/>
    <polygon fill="#82BE41" points="23.232,17.682 23.232,14.544 22.128,14.544 22.128,14.056 24.935,14.056 24.935,14.544
      23.825,14.544 23.825,17.682 "/>
    <path fill="#82BE41" d="M25.173,16.442c0,0.5,0.311,0.919,0.908,0.919c0.244,0,0.516-0.056,0.733-0.169l0.032,0.402
      c-0.255,0.104-0.544,0.146-0.843,0.146c-0.918,0-1.391-0.581-1.391-1.43c0-0.744,0.462-1.402,1.245-1.402
      c0.853,0,1.136,0.603,1.136,1.37v0.163H25.173z M26.472,16.104c0-0.412-0.12-0.82-0.608-0.82c-0.462,0-0.68,0.43-0.696,0.82H26.472z
      "/>
    <path fill="#82BE41" d="M29.364,17.638c-0.218,0.082-0.43,0.104-0.686,0.104c-0.935,0-1.419-0.599-1.419-1.43
      c0-0.843,0.576-1.402,1.431-1.402c0.238,0,0.445,0.011,0.679,0.092l-0.032,0.435c-0.169-0.081-0.359-0.118-0.571-0.118
      c-0.593,0-0.919,0.429-0.919,0.994c0,0.543,0.311,1.017,0.952,1.017c0.201,0,0.358-0.038,0.538-0.119L29.364,17.638z"/>
    <path fill="#82BE41" d="M29.701,17.682v-3.92h0.544v1.652c0.168-0.342,0.456-0.505,0.842-0.505c0.653,0,0.908,0.435,0.908,1.055
      v1.718h-0.55v-1.604c0-0.386-0.075-0.744-0.537-0.744c-0.5,0-0.663,0.445-0.663,0.864v1.484H29.701z"/>
    <path fill="#82BE41" d="M32.549,17.682v-2.093c0-0.213-0.005-0.413-0.026-0.625h0.511l0.016,0.467
      c0.19-0.348,0.484-0.521,0.881-0.521c0.675,0,0.913,0.424,0.913,1.055v1.718h-0.549v-1.604c0-0.38-0.076-0.744-0.538-0.744
      c-0.506,0-0.663,0.44-0.663,0.869v1.479H32.549z"/>
    <path fill="#82BE41" d="M35.251,16.311c0-0.825,0.527-1.401,1.337-1.401c0.859,0,1.337,0.554,1.337,1.401
      c0,0.827-0.478,1.431-1.337,1.431c-0.217,0-0.408-0.032-0.576-0.104C35.518,17.42,35.251,16.931,35.251,16.311 M36.588,17.328
      c0.544,0,0.75-0.516,0.75-1.018c0-0.482-0.189-0.993-0.75-0.993c-0.544,0-0.75,0.516-0.75,0.993c0,0.245,0.055,0.502,0.168,0.696
      C36.131,17.198,36.312,17.328,36.588,17.328"/>
    <rect x="38.354" y="13.762" fill="#82BE41" width="0.544" height="3.92"/>
    <path fill="#82BE41" d="M39.317,16.311c0-0.825,0.526-1.401,1.337-1.401c0.858,0,1.337,0.554,1.337,1.401
      c0,0.827-0.479,1.431-1.337,1.431c-0.218,0-0.408-0.032-0.576-0.104C39.583,17.42,39.317,16.931,39.317,16.311 M40.654,17.328
      c0.544,0,0.75-0.516,0.75-1.018c0-0.482-0.19-0.993-0.75-0.993c-0.544,0-0.75,0.516-0.75,0.993c0,0.245,0.054,0.502,0.168,0.696
      C40.197,17.198,40.377,17.328,40.654,17.328"/>
    <path fill="#82BE41" d="M42.519,18.307c0.239,0.125,0.527,0.195,0.81,0.195c0.631,0,0.887-0.392,0.887-0.973v-0.32
      c-0.174,0.299-0.495,0.473-0.843,0.473c-0.799,0-1.104-0.696-1.104-1.37c0-0.723,0.311-1.402,1.115-1.402
      c0.375,0,0.679,0.157,0.854,0.506v-0.452h0.521v2.566c0,0.886-0.439,1.387-1.348,1.387c-0.311,0-0.62-0.056-0.924-0.147
      L42.519,18.307z M43.535,17.263c0.521,0,0.696-0.533,0.696-0.946c0-0.435-0.163-0.988-0.691-0.988c-0.565,0-0.684,0.531-0.684,0.988
      c0,0.213,0.031,0.446,0.135,0.637C43.095,17.133,43.258,17.263,43.535,17.263"/>
    <path fill="#82BE41" d="M45.182,18.459c0.092,0.026,0.18,0.038,0.267,0.038c0.277,0,0.392-0.186,0.506-0.549l0.054-0.169
      l-0.973-2.815h0.593l0.663,2.234l0.652-2.234h0.555l-1.039,3.082c-0.146,0.418-0.342,0.87-0.913,0.87
      c-0.141,0-0.272-0.011-0.397-0.038L45.182,18.459z"/>
    <polygon fill="#82BE41" points="22.672,22.573 22.672,18.947 24.705,18.947 24.705,19.388 23.266,19.388 23.266,20.529
      24.646,20.529 24.646,20.959 23.266,20.959 23.266,22.573 "/>
    <path fill="#82BE41" d="M26.499,22.574l-0.017-0.431c-0.168,0.306-0.462,0.49-0.853,0.49c-0.49,0-0.903-0.24-0.903-0.805
      c0-0.707,0.637-0.924,1.436-0.924c0.07,0,0.223,0,0.305,0.005v-0.114c0-0.397-0.189-0.614-0.62-0.614
      c-0.276,0-0.554,0.065-0.799,0.217l-0.033-0.418c0.256-0.103,0.604-0.18,0.881-0.18c0.701,0,1.104,0.299,1.104,1.033v1.136
      c0,0.234,0.01,0.414,0.032,0.604H26.499z M26.32,21.242c-0.538,0-1.056,0.075-1.056,0.555c0,0.309,0.207,0.439,0.495,0.439
      c0.495,0,0.707-0.392,0.707-0.848v-0.146H26.32z"/>
    <path fill="#82BE41" d="M27.418,22.084c0.233,0.114,0.445,0.163,0.701,0.163c0.288,0,0.517-0.108,0.517-0.407
      c0-0.614-1.218-0.43-1.218-1.283c0-0.576,0.511-0.755,0.989-0.755c0.244,0,0.456,0.031,0.669,0.113l-0.033,0.397
      c-0.201-0.082-0.402-0.125-0.608-0.125c-0.24,0-0.49,0.06-0.49,0.342c0,0.522,1.229,0.354,1.229,1.278
      c0,0.592-0.538,0.826-1.038,0.826c-0.267,0-0.484-0.027-0.751-0.114L27.418,22.084z"/>
    <path fill="#82BE41" d="M31.06,22.541c-0.169,0.061-0.353,0.092-0.521,0.092c-0.582,0-0.69-0.401-0.69-0.929v-1.457h-0.5v-0.391h0.5
      v-0.588l0.549-0.18v0.768h0.609v0.391h-0.609v1.522c0,0.233,0.061,0.435,0.337,0.435c0.104,0,0.201-0.022,0.3-0.065L31.06,22.541z"
      />
    <path fill="#82BE41" d="M32.989,22.02c0.245,0.108,0.5,0.157,0.756,0.157c0.462,0,0.951-0.174,0.951-0.761
      c0-0.517-0.413-0.685-0.881-0.685c-0.233,0-0.467,0.038-0.766,0.13l0.031-1.913h2.039v0.429h-1.506l-0.032,1.012
      c0.146-0.038,0.31-0.055,0.468-0.055c0.651,0,1.245,0.288,1.245,1.044c0,0.869-0.729,1.255-1.49,1.255
      c-0.267,0-0.57-0.031-0.849-0.136L32.989,22.02z"/>
    <path fill="#82BE41" d="M35.669,20.763c0-0.858,0.278-1.87,1.305-1.87c1.027,0,1.306,1.018,1.306,1.87
      c0,0.859-0.262,1.87-1.306,1.87c-0.266,0-0.483-0.054-0.651-0.168C35.811,22.144,35.664,21.416,35.669,20.763 M36.974,22.204
      c0.658,0,0.719-0.859,0.719-1.441c0-0.607-0.061-1.439-0.719-1.439c-0.657,0-0.718,0.837-0.718,1.439c0,0.3,0.018,0.653,0.109,0.941
      C36.458,21.992,36.642,22.204,36.974,22.204"/>
    <path fill="#253370" d="M22.259,28.172v-0.419l0.877-0.802c0.27-0.247,0.367-0.428,0.367-0.611c0-0.282-0.251-0.407-0.501-0.407
      c-0.23,0-0.449,0.078-0.649,0.172l-0.021-0.423c0.251-0.09,0.501-0.16,0.771-0.16c0.486,0,0.963,0.196,0.963,0.751
      c0,0.357-0.203,0.619-0.591,0.976l-0.571,0.524h1.194v0.399H22.259z"/>
    <path fill="#253370" d="M24.341,26.868c0-0.665,0.238-1.347,1.01-1.347c0.767,0,1.014,0.686,1.014,1.347
      c0,0.666-0.235,1.347-1.014,1.347c-0.196,0-0.36-0.04-0.489-0.113C24.466,27.866,24.341,27.39,24.341,26.868 M25.351,27.835
      c0.411,0,0.45-0.536,0.45-0.967c0-0.466-0.043-0.967-0.45-0.967c-0.403,0-0.446,0.509-0.446,0.967c0,0.219,0.008,0.458,0.066,0.646
      C25.029,27.702,25.144,27.835,25.351,27.835"/>
    <polygon fill="#253370" points="27.382,28.172 27.382,26.125 26.877,26.512 26.681,26.125 27.456,25.561 27.938,25.561
      27.938,28.172 "/>
    <path fill="#253370" d="M28.716,27.702c0.185,0.074,0.392,0.106,0.592,0.106c0.341,0,0.626-0.122,0.626-0.482
      c0-0.34-0.289-0.442-0.622-0.442c-0.168,0-0.353,0.027-0.553,0.086l0.027-1.408h1.597v0.387h-1.092l-0.027,0.627
      c0.106-0.028,0.22-0.032,0.317-0.032c0.489,0,0.928,0.196,0.928,0.775c0,0.61-0.56,0.896-1.107,0.896
      c-0.235,0-0.489-0.027-0.708-0.102L28.716,27.702z"/>
    <path fill="#253370" d="M31.534,28.172l1.053-2.61h0.254l1.058,2.61h-0.242l-0.282-0.725h-1.327l-0.29,0.725H31.534z M32.129,27.24
      h1.163l-0.58-1.46L32.129,27.24z"/>
    <path fill="#253370" d="M34.372,27.264c0,0.438,0.247,0.732,0.701,0.732s0.699-0.294,0.699-0.732v-1.703h0.235v1.703
      c0,0.575-0.355,0.951-0.935,0.951c-0.587,0-0.937-0.372-0.937-0.951v-1.703h0.235V27.264z"/>
    <path fill="#253370" d="M36.376,27.858c0.172,0.106,0.372,0.138,0.527,0.138c0.342,0,0.593-0.157,0.593-0.518
      c0-0.246-0.192-0.391-0.443-0.532l-0.235-0.133c-0.241-0.137-0.419-0.302-0.419-0.603c0-0.471,0.4-0.689,0.808-0.689
      c0.155,0,0.305,0.024,0.458,0.082l-0.024,0.235c-0.137-0.066-0.289-0.099-0.442-0.099c-0.29,0-0.556,0.131-0.556,0.458
      c0,0.217,0.133,0.329,0.353,0.45l0.234,0.135c0.274,0.155,0.514,0.344,0.514,0.699c0,0.466-0.381,0.732-0.85,0.732
      c-0.2,0-0.372-0.031-0.556-0.113L36.376,27.858z"/>
    <polygon fill="#253370" points="38.747,28.172 38.747,25.771 37.984,25.771 37.984,25.561 39.749,25.561 39.749,25.771
      38.982,25.771 38.982,28.172 "/>
    <path fill="#253370" d="M40.113,28.172v-2.611h0.626c0.427,0,0.787,0.2,0.787,0.678c0,0.328-0.278,0.556-0.587,0.599
      c0.184,0.036,0.262,0.161,0.337,0.316l0.454,1.019H41.46l-0.388-0.893c-0.125-0.277-0.196-0.349-0.513-0.349h-0.211v1.241H40.113z
       M40.349,26.72h0.273c0.313,0,0.658-0.125,0.658-0.489c0-0.376-0.29-0.458-0.642-0.458h-0.29V26.72z"/>
    <path fill="#253370" d="M41.905,28.172l1.054-2.61h0.254l1.057,2.61h-0.242l-0.281-0.725h-1.327l-0.29,0.725H41.905z M42.501,27.24
      h1.163l-0.58-1.46L42.501,27.24z"/>
    <polygon fill="#253370" points="44.618,28.172 44.618,25.561 44.854,25.561 44.854,27.961 45.891,27.961 45.891,28.172 "/>
    <rect x="46.285" y="25.561" fill="#253370" width="0.234" height="2.611"/>
    <path fill="#253370" d="M46.868,28.172l1.053-2.61h0.255l1.057,2.61H48.99l-0.282-0.725h-1.326l-0.29,0.725H46.868z M47.463,27.24
      h1.163l-0.58-1.46L47.463,27.24z"/>
    <path fill="#80BD41" d="M9.282,16.206c3.715,0,5.296,2.878,5.296,5.027c0,2.244-1.502,5.153-5.375,5.153
      c-2.941,0-5.17-2.071-5.17-5.09C4.033,18.451,6.262,16.206,9.282,16.206 M9.282,25.913c3.478,0,3.62-4.126,3.62-4.917
      c0-2.039-1.17-4.315-3.683-4.315c-1.708,0-3.51,1.312-3.51,4.647C5.709,24.933,7.986,25.913,9.282,25.913"/>
    <path fill="#25336F" d="M0.966,16.552c-0.044,0.11-0.044,0.198-0.044,0.265c0,0.284,6.326,0.461,6.326,5.205
      c0,4.591-5.206,6.15-6.721,6.15c-0.374,0-0.484-0.11-0.484-0.242s0.044-0.241,0.22-0.285c0.198-0.044,0.615-0.109,1.186-0.285
      c2.285-0.703,4.306-2.307,4.306-4.921c0-1.493-0.396-2.504-2.263-3.383c-1.889-0.879-3.449-1.076-3.449-1.384
      c0-0.307,0.835-2.702,0.945-3.053c0.088-0.308,0.198-0.329,0.966-0.417l3.625-0.374c0.285-0.044,0.373-0.066,0.505-0.066
      c0.286,0,0.395,0.022,0.395,0.33c0,0.285,0,0.922-0.505,0.988l-4.481,0.637c-0.285,0.044-0.307,0.176-0.351,0.33L0.966,16.552z"/>
    <path fill="#253370" d="M0.966,16.552c-0.044,0.11-0.044,0.198-0.044,0.265c0,0.284,6.326,0.461,6.326,5.205
      c0,4.591-5.206,6.15-6.721,6.15c-0.374,0-0.484-0.11-0.484-0.242s0.044-0.241,0.22-0.285c0.198-0.044,0.615-0.109,1.186-0.285
      c2.285-0.703,4.306-2.307,4.306-4.921c0-1.493-0.396-2.504-2.263-3.383c-1.889-0.879-3.449-1.076-3.449-1.384
      c0-0.307,0.835-2.702,0.945-3.053c0.088-0.308,0.198-0.329,0.966-0.417l3.625-0.374c0.285-0.044,0.373-0.066,0.505-0.066
      c0.286,0,0.395,0.022,0.395,0.33c0,0.285,0,0.922-0.505,0.988l-4.481,0.637c-0.285,0.044-0.307,0.176-0.351,0.33L0.966,16.552z"/>
    <rect x="18.583" y="13.678" fill="#253370" width="0.392" height="14.494"/>
    <polygon fill="#BCBEC0" points="2.708,43.365 0,33.274 2.164,33.274 4.116,41.293 6.294,33.274 8.594,33.274 10.743,41.293
      12.708,33.274 14.751,33.274 12.059,43.365 9.562,43.365 7.369,35.333 5.22,43.365 "/>
    <path fill="#BCBEC0" d="M15.463,32.685h2.088v1.68h-2.088V32.685z M15.463,35.771h2.088v7.595h-2.088V35.771z"/>
    <path fill="#BCBEC0" d="M19.29,43.365v-5.899c0-0.561-0.015-1.135-0.076-1.695h1.967l0.03,1.271c0.5-0.969,1.392-1.422,2.466-1.422
      c1.831,0,2.572,1.089,2.572,2.828v4.917h-2.087v-4.433c0-0.907-0.137-1.814-1.271-1.814c-1.18,0-1.513,1.059-1.513,2.057v4.19H19.29
      z"/>
    <path fill="#BCBEC0" d="M27.989,43.365v-5.899c0-0.561-0.016-1.135-0.076-1.695h1.967l0.03,1.271c0.5-0.969,1.392-1.422,2.466-1.422
      c1.831,0,2.572,1.089,2.572,2.828v4.917h-2.087v-4.433c0-0.907-0.138-1.814-1.271-1.814c-1.18,0-1.513,1.059-1.513,2.057v4.19
      H27.989z"/>
    <path fill="#BCBEC0" d="M38.292,40.022c0.045,1.315,0.877,2.117,2.496,2.117c0.741,0,1.558-0.195,2.088-0.499l0.091,1.452
      c-0.604,0.257-1.589,0.439-2.421,0.439c-2.799,0-4.297-1.467-4.297-3.994c0-2.254,1.528-3.918,3.769-3.918
      c2.435,0,3.343,1.603,3.343,3.903v0.499H38.292z M41.484,38.842c0-0.953-0.303-1.967-1.452-1.967c-1.15,0-1.695,0.999-1.74,1.967
      H41.484z"/>
    <path fill="#BCBEC0" d="M44.631,43.365v-5.899c0-0.561-0.015-1.12-0.076-1.68h1.967l0.046,1.468
      c0.363-0.832,1.104-1.649,2.134-1.649c0.227,0,0.407,0.016,0.604,0.075l-0.061,1.876c-0.196-0.075-0.423-0.104-0.65-0.104
      c-1.392,0-1.876,1.346-1.876,2.525v3.389H44.631z"/>
  </symbol>

  <symbol viewBox="0 0 86.01 20.224" id="logo-prospa">
    <polygon fill="#6FAB43" points="77.352,6.025 77.352,15.243 81.588,10.696 "/>
    <path d="M8.214,0.001c-0.872,0-1.691,0.165-2.457,0.493c-0.766,0.33-1.479,0.824-2.138,1.483V0.375H0v19.849h3.619v-6.853
      c0.713,0.678,1.43,1.164,2.15,1.463c0.722,0.299,1.501,0.447,2.338,0.447c1.879,0,3.505-0.728,4.875-2.184
      c1.371-1.456,2.058-3.266,2.058-5.43c0-2.244-0.663-4.083-1.99-5.518C11.723,0.718,10.111,0.001,8.214,0.001 M10.265,10.727
      c-0.762,0.81-1.699,1.215-2.812,1.215c-1.149,0-2.103-0.397-2.858-1.195C3.838,9.949,3.459,8.905,3.459,7.614
      c0-1.265,0.379-2.289,1.136-3.071c0.756-0.784,1.709-1.177,2.858-1.177c1.14,0,2.084,0.399,2.832,1.196s1.122,1.818,1.122,3.065
      C11.407,8.884,11.025,9.917,10.265,10.727"/>
    <path d="M20.995,0.562c-0.562,0.374-1.012,0.922-1.35,1.643v-1.83H16.52v14.533h3.62V9.03l-0.013-0.708
      c0-2.031,0.193-3.393,0.581-4.088c0.387-0.694,0.86-1.042,1.422-1.042c0.276,0,0.628,0.107,1.056,0.321l1.135-3.14
      C23.805,0.125,23.31,0,22.839,0C22.171,0,21.556,0.188,20.995,0.562"/>
    <path d="M61.834,0.001c-0.873,0-1.692,0.165-2.458,0.493c-0.766,0.33-1.478,0.824-2.137,1.483V0.375h-3.62v19.849h3.62v-6.853
      c0.712,0.678,1.429,1.164,2.15,1.463c0.721,0.299,1.501,0.447,2.338,0.447c1.879,0,3.504-0.728,4.875-2.184s2.057-3.266,2.057-5.43
      c0-2.244-0.663-4.083-1.99-5.518C65.343,0.718,63.73,0.001,61.834,0.001 M63.885,10.727c-0.762,0.81-1.699,1.215-2.812,1.215
      c-1.148,0-2.102-0.397-2.857-1.195c-0.758-0.797-1.137-1.841-1.137-3.132c0-1.265,0.379-2.289,1.137-3.071
      c0.756-0.784,1.709-1.177,2.857-1.177c1.14,0,2.084,0.399,2.832,1.196s1.122,1.818,1.122,3.065
      C65.026,8.884,64.646,9.917,63.885,10.727"/>
    <path d="M36.133,1.028c-1.207-0.685-2.496-1.027-3.867-1.027c-1.896,0-3.575,0.659-5.036,1.977
      c-1.665,1.515-2.497,3.406-2.497,5.677c0,2.119,0.736,3.921,2.21,5.403c1.475,1.482,3.253,2.225,5.336,2.225
      c1.416,0,2.712-0.337,3.889-1.01c1.175-0.672,2.103-1.604,2.784-2.798c0.682-1.192,1.021-2.475,1.021-3.847
      c0-1.363-0.338-2.632-1.015-3.808C38.28,2.645,37.34,1.715,36.133,1.028 M35.163,10.7c-0.759,0.793-1.708,1.188-2.851,1.188
      c-1.142,0-2.085-0.392-2.83-1.175c-0.745-0.784-1.117-1.808-1.117-3.073c0-1.229,0.376-2.237,1.131-3.024
      c0.754-0.788,1.696-1.183,2.829-1.183c1.16,0,2.112,0.39,2.857,1.168c0.745,0.78,1.117,1.793,1.117,3.039
      C36.3,8.888,35.921,9.908,35.163,10.7"/>
    <path d="M78.445,0.091c-4.177,0-7.562,3.386-7.562,7.562c0,3.65,3.029,6.881,6.468,7.591v-4.141
      c-1.463-0.463-2.524-1.832-2.524-3.45c0-1.999,1.621-3.618,3.619-3.618c1.943,0,3.523,1.463,3.609,3.597
      c0.003-0.006,0.006-0.011,0.006-0.011v0.131c0,0.021,0.002,0.04,0.002,0.061c0,0.019-0.002,0.036-0.002,0.055v6.676
      c0,0,0.001,0,0.002-0.001v0.526h3.932V8.091c0.005-0.137,0.016-0.267,0.016-0.407V7.67C85.994,2.796,82.622,0.091,78.445,0.091"/>
    <path d="M47.745,6.092l-1.337-0.668c-0.578-0.285-0.941-0.511-1.088-0.675C45.173,4.585,45.1,4.404,45.1,4.209
      c0-0.26,0.116-0.476,0.347-0.648C45.679,3.387,45.999,3.3,46.408,3.3c0.748,0,1.581,0.454,2.498,1.362l2.258-2.258
      c-0.579-0.773-1.284-1.369-2.117-1.783c-0.832-0.413-1.722-0.62-2.665-0.62c-1.38,0-2.513,0.406-3.399,1.222
      c-0.886,0.814-1.329,1.797-1.329,2.945c0,1.78,1.176,3.264,3.526,4.447l1.229,0.615c1.061,0.534,1.591,1.082,1.591,1.644
      c0,0.303-0.147,0.569-0.441,0.801s-0.681,0.348-1.162,0.348c-0.446,0-0.955-0.154-1.53-0.461c-0.573-0.308-1.074-0.71-1.503-1.209
      l-2.243,2.444c1.265,1.656,2.956,2.484,5.075,2.484c1.595,0,2.866-0.432,3.814-1.296c0.948-0.862,1.423-1.94,1.423-3.231
      c0-0.972-0.263-1.817-0.789-2.538C50.117,7.493,49.151,6.785,47.745,6.092"/>
  </symbol>

  <symbol viewBox="0 0 78.882 8.923" id="logo-invoicenow">
    <rect y="0.215" width="0.792" height="8.492"/>
    <polygon points="3.12,0.216 4.141,0.216 9.309,7.652 9.333,7.652 9.333,0.216 10.125,0.216 10.125,8.707 9.105,8.707 3.936,1.271
      3.912,1.271 3.912,8.707 3.12,8.707 "/>
    <polygon points="11.257,0.216 12.108,0.216 14.843,7.664 17.602,0.216 18.441,0.216 15.215,8.707 14.423,8.707 "/>
    <path d="M23.41,0c2.591,0,4.39,1.871,4.39,4.461c0,2.591-1.799,4.462-4.39,4.462c-2.59,0-4.39-1.871-4.39-4.462
      C19.021,1.871,20.82,0,23.41,0 M23.41,8.203c2.219,0,3.599-1.631,3.599-3.742c0-2.11-1.38-3.741-3.599-3.741
      s-3.598,1.631-3.598,3.741C19.812,6.572,21.191,8.203,23.41,8.203"/>
    <rect x="29.58" y="0.216" width="0.792" height="8.491"/>
    <path d="M39.691,7.376c-0.804,1.104-1.906,1.547-3.154,1.547c-2.59,0-4.39-1.871-4.39-4.462c0-2.59,1.8-4.461,4.39-4.461
      c1.151,0,2.183,0.384,2.927,1.331l-0.647,0.54c-0.528-0.792-1.428-1.151-2.279-1.151c-2.219,0-3.598,1.631-3.598,3.741
      c0,2.111,1.379,3.742,3.598,3.742c0.852,0,1.907-0.407,2.508-1.319L39.691,7.376z"/>
    <polygon points="41.147,0.216 46.341,0.216 46.341,0.936 41.939,0.936 41.939,3.958 46.065,3.958 46.065,4.678 41.939,4.678
      41.939,7.987 46.533,7.987 46.533,8.707 41.147,8.707 "/>
    <polygon fill="#73AF43" points="47.964,0.216 50.507,0.216 54.117,6.116 54.141,6.116 54.141,0.216 56.012,0.216 56.012,8.707
      53.565,8.707 49.859,2.662 49.835,2.662 49.835,8.707 47.964,8.707 "/>
    <path fill="#73AF43" d="M61.869,0c2.65,0,4.581,1.739,4.581,4.461c0,2.723-1.931,4.462-4.581,4.462s-4.581-1.739-4.581-4.462
      C57.288,1.739,59.219,0,61.869,0 M61.869,7.196c1.595,0,2.639-1.151,2.639-2.735c0-1.583-1.044-2.734-2.639-2.734
      S59.23,2.878,59.23,4.461C59.23,6.045,60.274,7.196,61.869,7.196"/>
    <polygon fill="#73AF43" points="66.84,0.216 68.879,0.216 70.234,5.661 70.259,5.661 72.033,0.216 73.772,0.216 75.535,5.805
      75.56,5.805 76.986,0.216 78.882,0.216 76.399,8.707 74.731,8.707 72.861,2.83 72.837,2.83 70.966,8.707 69.358,8.707 "/>
  </symbol>

  <symbol viewBox="0 0 20 20" id="icon-phone">
    <path d="M10,0C4.477,0,0,4.478,0,10c0,5.523,4.477,10,10,10c5.523,0,10-4.477,10-10C20,4.478,15.523,0,10,0 M15.604,13.447
      l-1.611,1.599c-0.073,0.081-0.168,0.149-0.285,0.206c-0.117,0.056-0.232,0.093-0.346,0.109c-0.008,0-0.031,0.002-0.072,0.006
      c-0.04,0.004-0.092,0.006-0.157,0.006c-0.153,0-0.401-0.026-0.745-0.079c-0.343-0.052-0.763-0.181-1.26-0.388
      c-0.496-0.205-1.06-0.515-1.69-0.927c-0.629-0.411-1.3-0.977-2.01-1.696c-0.566-0.557-1.034-1.09-1.406-1.599
      c-0.371-0.509-0.67-0.979-0.896-1.411C4.899,8.842,4.729,8.45,4.616,8.099c-0.113-0.351-0.19-0.654-0.23-0.909
      C4.346,6.936,4.33,6.736,4.338,6.591S4.35,6.365,4.35,6.349c0.016-0.113,0.052-0.228,0.109-0.346
      c0.056-0.117,0.125-0.212,0.206-0.284l1.611-1.611c0.113-0.113,0.242-0.17,0.387-0.17c0.105,0,0.198,0.03,0.279,0.091
      s0.149,0.135,0.206,0.224l1.296,2.459c0.073,0.129,0.093,0.271,0.061,0.424C8.472,7.289,8.404,7.419,8.299,7.524L7.705,8.117
      C7.689,8.133,7.675,8.16,7.663,8.196C7.651,8.232,7.645,8.263,7.645,8.287C7.677,8.456,7.75,8.65,7.863,8.868
      c0.097,0.194,0.246,0.43,0.448,0.709c0.202,0.278,0.488,0.599,0.86,0.963c0.363,0.371,0.686,0.66,0.969,0.867
      c0.283,0.205,0.519,0.356,0.709,0.453c0.189,0.098,0.334,0.156,0.436,0.176l0.15,0.031c0.017,0,0.043-0.007,0.08-0.019
      c0.035-0.013,0.062-0.026,0.078-0.043l0.69-0.702c0.145-0.129,0.315-0.194,0.509-0.194c0.137,0,0.246,0.024,0.327,0.073h0.012
      l2.338,1.381c0.169,0.105,0.271,0.238,0.304,0.4C15.797,13.148,15.74,13.31,15.604,13.447"/>
  </symbol>

  <symbol viewBox="0 0 20 20" id="icon-phonenew">

    <g>
      <g>
        <defs>
          <rect id="SVGID_1_" width="20" height="20"/>
        </defs>

        <path d="M20,15.8c0,0.3-0.1,0.6-0.3,0.8l-2.8,2.8c-0.1,0.1-0.3,0.3-0.5,0.4
          C16.2,19.9,16,20,15.8,20h-0.1c0,0-0.2,0-0.3,0c-0.3,0-0.7,0-1.3-0.1c-0.6-0.1-1.3-0.3-2.2-0.7c-0.9-0.4-1.9-0.9-3-1.6
          c-1.1-0.7-2.3-1.7-3.5-3c-1-1-1.8-1.9-2.5-2.8s-1.2-1.7-1.6-2.5S0.6,7.9,0.4,7.2C0.2,6.6,0.1,6.1,0,5.6c-0.1-0.4-0.1-0.8-0.1-1
          c0-0.3,0-0.4,0-0.4C-0.1,4,0,3.8,0.1,3.6c0.1-0.2,0.2-0.4,0.4-0.5l2.8-2.8C3.5,0.1,3.7,0,4,0c0.2,0,0.3,0.1,0.5,0.2
          s0.3,0.2,0.4,0.4l2.3,4.3c0.1,0.2,0.2,0.5,0.1,0.7C7.2,5.9,7.1,6.1,6.9,6.3l-1,1L5.8,7.4c0,0.1,0,0.1,0,0.2
          c0.1,0.3,0.2,0.6,0.4,1C6.4,8.9,6.6,9.4,7,9.8c0.4,0.5,0.9,1,1.5,1.7c0.6,0.6,1.2,1.2,1.7,1.5c0.5,0.4,0.9,0.6,1.2,0.8
          c0.3,0.2,0.6,0.3,0.8,0.3l0.3,0.1h0.1c0.1,0,0.1,0,0.1-0.1l1.2-1.2c0.3-0.2,0.6-0.3,0.9-0.3c0.2,0,0.4,0,0.6,0.1l0,0l4.1,2.4
          C19.8,15.2,19.9,15.5,20,15.8"/>
      </g>
    </g>
  </symbol>

  <symbol viewBox="0 0 18 18" id="icon-phone-o">
    <path d="M13.6,11.3c0,0.2,0,0.3-0.1,0.4L12.2,13c-0.1,0.1-0.1,0.1-0.2,0.2c-0.1,0-0.2,0.1-0.3,0.1c0,0,0,0-0.1,0c0,0-0.1,0-0.1,0
      c-0.1,0-0.3,0-0.6-0.1c-0.3,0-0.6-0.1-1-0.3c-0.4-0.2-0.9-0.4-1.4-0.7c-0.5-0.3-1.1-0.8-1.6-1.4C6.4,10.3,6,9.9,5.7,9.5
      C5.4,9.1,5.2,8.7,5,8.4C4.8,8,4.7,7.7,4.6,7.4S4.5,6.9,4.4,6.7c0-0.2,0-0.4,0-0.5c0-0.1,0-0.2,0-0.2c0-0.1,0-0.2,0.1-0.3
      c0-0.1,0.1-0.2,0.2-0.2l1.3-1.3C6,4.1,6.1,4.1,6.3,4.1c0.1,0,0.2,0,0.2,0.1s0.1,0.1,0.2,0.2l1,2c0.1,0.1,0.1,0.2,0,0.3
      c0,0.1-0.1,0.2-0.2,0.3L7.1,7.4c0,0,0,0,0,0.1c0,0,0,0.1,0,0.1c0,0.1,0.1,0.3,0.2,0.5c0.1,0.2,0.2,0.3,0.4,0.6
      C7.8,8.8,8,9.1,8.3,9.4c0.3,0.3,0.6,0.5,0.8,0.7c0.2,0.2,0.4,0.3,0.6,0.4c0.2,0.1,0.3,0.1,0.4,0.1l0.1,0c0,0,0,0,0.1,0
      c0,0,0.1,0,0.1,0l0.6-0.6c0.1-0.1,0.3-0.2,0.4-0.2c0.1,0,0.2,0,0.3,0.1h0l1.9,1.1C13.5,11.1,13.6,11.2,13.6,11.3"/>
    <path d="M9,0C4.1,0,0,4.1,0,9s4.1,9,9,9s9-4.1,9-9C18,4,13.9,0,9,0z M9,16.7c-4.3,0-7.8-3.5-7.8-7.8
      c0-4.3,3.5-7.8,7.8-7.8s7.8,3.5,7.8,7.8S13.3,16.7,9,16.7z"/>
  </symbol>



  <symbol viewBox="0 0 20 13.258" id="icon-email">
    <path d="M12.522,7.281l5.687,4.994H1.792l5.686-4.994L10,9.496L12.522,7.281z M0.983,1.578l5.749,5.049l-5.749,5.049V1.578z
       M13.267,6.627l5.749-5.049v10.098L13.267,6.627z M1.797,0.983h16.406L10,8.187L1.797,0.983z M0,13.258h20V0H0V13.258z"/>
  </symbol>

  <symbol viewBox="0 0 20 15"  id="icon-emailround">
    <g>
      <path d="M17.5,0h-15C1.1,0,0,1.1,0,2.5v10C0,13.9,1.1,15,2.5,15h15c1.4,0,2.5-1.1,2.5-2.5v-10
        C20,1.1,18.9,0,17.5,0L17.5,0z M13.4,6.6l5.3-4.5c0,0.1,0.1,0.2,0.1,0.4v10c0,0.1,0,0.2,0,0.2L13.4,6.6z M17.5,1.2
        c0.1,0,0.2,0,0.2,0L10,7.8L2.3,1.2c0.1,0,0.2,0,0.2,0H17.5z M1.3,12.7c0-0.1,0-0.2,0-0.2v-10c0-0.1,0-0.2,0.1-0.4l5.3,4.5
        L1.3,12.7z M2.5,13.7c-0.1,0-0.2,0-0.4-0.1l5.4-6.2l2,1.7c0.1,0.1,0.3,0.2,0.4,0.2c0.1,0,0.3,0,0.4-0.2l2-1.7l5.4,6.2
        c-0.1,0-0.2,0.1-0.4,0.1H2.5z"/>
    </g>
  </symbol>

  <symbol viewBox="0 0 14.7 20" id="icon-lock">
    <g>
      <g>
        <g>
          <path d="M13.5,8.8V6.1c0-3.3-2.7-6.1-6.1-6.1C4.1,0,1.3,2.7,1.3,6.1v2.7H0V20h14.7V8.8H13.5z M3.6,6.1
            c0-2.1,1.7-3.8,3.8-3.8s3.8,1.7,3.8,3.8v2.7H3.7V6.1H3.6z M8.4,16.9H6.3l0.3-3.1C6.2,13.6,6,13.1,6,12.6c0-0.8,0.6-1.4,1.4-1.4
            c0.8,0,1.4,0.6,1.4,1.4c0,0.5-0.3,0.9-0.6,1.2L8.4,16.9z"/>
        </g>
      </g>
    </g>
  </symbol>

  <symbol viewBox="0 0 18 18" id="icon-lock-o">
    <path d="M9,0C4.1,0,0,4.1,0,9s4.1,9,9,9s9-4.1,9-9C18,4,13.9,0,9,0z M9,16.7c-4.3,0-7.8-3.5-7.8-7.8
      c0-4.3,3.5-7.8,7.8-7.8s7.8,3.5,7.8,7.8S13.3,16.7,9,16.7z"/>
    <path d="M11.5,7.8V6.6c0-1.4-1.1-2.5-2.5-2.5S6.5,5.2,6.5,6.6v1.2H6.1v4.5h5.9V7.8H11.5z M7.2,6.6
      c0-1,0.8-1.8,1.8-1.8s1.8,0.8,1.8,1.8v1.2H7.2V6.6z"/>
  </symbol>


  <symbol viewBox="0 0 20 20" id="icon-facebook">
    <g>
      <defs>
        <rect id="SVGID_1_" width="20" height="20"/>
      </defs>

      <path d="M10,0.568c-5.201,0-9.432,4.232-9.432,9.433c0,5.2,4.231,9.432,9.432,9.432
        c5.201,0,9.432-4.231,9.432-9.432C19.432,4.8,15.201,0.568,10,0.568 M10,20c-5.513,0-9.999-4.485-9.999-9.999
        C0.001,4.486,4.487,0,10,0s10,4.486,10,10.001C20,15.515,15.513,20,10,20"/>
      <path d="M7.668,8.364h0.999V7.394c0-0.428,0.011-1.088,0.321-1.497
        c0.328-0.434,0.778-0.728,1.552-0.728c1.26,0,1.791,0.18,1.791,0.18l-0.25,1.48c0,0-0.417-0.12-0.805-0.12
        c-0.39,0-0.736,0.139-0.736,0.527v1.129h1.593l-0.11,1.445h-1.482v5.023H8.667V9.81H7.668V8.364z"/>
    </g>
  </symbol>

  <symbol viewBox="0 0 20.001 20" id="icon-twitter">
    <g>
      <defs>
        <rect id="SVGID_1_" width="20.001" height="20"/>
      </defs>

      <path d="M10,0.568C4.799,0.568,0.568,4.8,0.568,10c0,5.201,4.231,9.432,9.432,9.432
        c5.201,0,9.433-4.23,9.433-9.432C19.433,4.8,15.201,0.568,10,0.568 M10,20c-5.513,0-9.999-4.486-9.999-10S4.487,0,10,0
        s9.999,4.486,9.999,10S15.513,20,10,20"/>
      <path d="M15.408,7.501c-0.216,0.323-0.739,0.265-1.14,0.312c0.41-0.246,0.725-0.635,0.873-1.098
        c-0.385,0.228-0.809,0.393-1.262,0.482c-0.361-0.386-0.879-0.627-1.449-0.627c-1.096,0-1.986,0.889-1.986,1.985
        c0,0.156,0.018,0.308,0.051,0.453C8.844,8.926,7.382,8.136,6.402,6.934C6.231,7.228,6.133,7.568,6.133,7.932
        c0,0.689,0.351,1.298,0.883,1.653c-0.324-0.01-0.632-0.099-0.9-0.248v0.026c0,0.962,0.685,1.764,1.595,1.947
        c-0.168,0.046-0.343,0.069-0.525,0.069c-0.128,0-0.253-0.012-0.372-0.035c0.252,0.788,0.985,1.363,1.854,1.379
        c-0.679,0.532-1.536,0.85-2.466,0.85c-0.161,0-0.319-0.008-0.474-0.027c0.879,0.564,1.923,0.892,3.044,0.892
        c3.654,0,5.65-3.024,5.65-5.65c0-0.087-0.002-0.172-0.006-0.257C14.806,8.25,15.144,7.899,15.408,7.501"/>
    </g>
  </symbol>

  <symbol viewBox="0 0 20.001 20" id="icon-linkedin">
    <g>
      <defs>
        <rect id="SVGID_1_" width="20.001" height="20"/>
      </defs>

      <path d="M10,0.568C4.799,0.568,0.568,4.8,0.568,10c0,5.201,4.231,9.433,9.432,9.433
        c5.201,0,9.433-4.231,9.433-9.433C19.433,4.8,15.201,0.568,10,0.568 M10,20c-5.513,0-9.999-4.485-9.999-10
        C0.001,4.486,4.487,0,10,0s9.999,4.486,9.999,10C19.999,15.515,15.513,20,10,20"/>
      <path d="M14.88,13.835h-1.928v-2.812c0-0.737-0.3-1.24-0.964-1.24c-0.507,0-0.788,0.339-0.92,0.666
        c-0.048,0.118-0.041,0.281-0.041,0.445v2.942H9.119c0,0,0.024-4.985,0-5.437h1.908v0.853c0.112-0.373,0.722-0.905,1.696-0.905
        c1.207,0,2.156,0.782,2.156,2.466V13.835z M7.189,7.718H7.176c-0.615,0-1.013-0.417-1.013-0.943c0-0.537,0.41-0.944,1.037-0.944
        s1.013,0.406,1.025,0.943C8.225,7.3,7.827,7.718,7.189,7.718 M8.082,13.835H6.383V8.397h1.699V13.835z"/>
    </g>
  </symbol>


  <symbol viewBox="0 0 18 18" id="icon-user">

    <path d="M9,0C4,0,0,4,0,9c0,5,4,9,9,9c5,0,9-4,9-9C18,4,14,0,9,0z M14.2,14v-0.4c0-1.2-1.4-1.7-2.2-2c-0.3-0.1-0.8-0.4-1.3-0.6
      c-0.2-0.1-0.3-0.3-0.4-0.5l-0.1-0.6C10.7,9.5,11,9,11.1,8.4h0.1c0.1,0,0.3-0.1,0.3-0.2l0.1-0.9c0-0.2-0.2-0.3-0.3-0.3c0,0,0,0,0-0.1
      c0-0.1,0-0.2,0-0.3c0-0.1,0-0.2,0-0.3c0-0.4-0.1-0.8-0.2-1c-0.1-0.3-0.3-0.6-0.6-0.8C10,3.9,9.2,3.6,8.5,4.1C8,4.1,7.4,4.3,7,4.8
      C6.8,5,6.7,5.3,6.6,5.6C6.5,5.8,6.5,6,6.5,6.2c0,0.3,0,0.5,0.1,0.7C6.4,7,6.3,7.1,6.3,7.3l0.1,0.9c0,0.1,0.2,0.2,0.3,0.2h0.1
      C6.9,9,7.3,9.5,7.7,9.9l-0.1,0.6c0,0.2-0.2,0.4-0.4,0.5c-0.5,0.3-1,0.5-1.3,0.6c-0.7,0.3-2.2,0.8-2.2,2v0.3c-1.2-1.3-1.9-3-1.9-4.9
      C1.8,5,5,1.8,9,1.8c4,0,7.2,3.2,7.2,7.2C16.2,10.9,15.4,12.7,14.2,14z"/>


  </symbol>


  <symbol viewBox="0 0 20.001 20" id="icon-vimeo">
    <g>
      <defs>
        <rect id="SVGID_1_" width="20.001" height="20"/>
      </defs>
      <path d="M10,0.568c-5.201,0-9.432,4.232-9.432,9.433c0,5.2,4.231,9.431,9.432,9.431
        c5.201,0,9.433-4.23,9.433-9.431C19.433,4.8,15.201,0.568,10,0.568 M10,20c-5.513,0-9.999-4.486-9.999-9.999
        C0.001,4.486,4.487,0,10,0s9.999,4.486,9.999,10.001C19.999,15.514,15.513,20,10,20"/>
      <path d="M14.389,8.466c-0.038,0.855-0.637,2.022-1.79,3.505c-1.195,1.551-2.207,2.324-3.034,2.324
        c-0.512,0-0.945-0.473-1.299-1.417c-0.237-0.867-0.473-1.735-0.71-2.6C7.293,9.333,7.011,8.86,6.71,8.86
        c-0.066,0-0.295,0.138-0.69,0.414L5.607,8.741C6.04,8.362,6.467,7.98,6.888,7.6c0.577-0.499,1.01-0.761,1.299-0.788
        c0.682-0.066,1.103,0.4,1.261,1.398c0.17,1.077,0.288,1.747,0.354,2.01c0.198,0.892,0.413,1.337,0.648,1.337
        c0.185,0,0.461-0.287,0.828-0.866c0.367-0.577,0.563-1.017,0.59-1.319c0.054-0.499-0.144-0.747-0.59-0.747
        c-0.209,0-0.428,0.045-0.65,0.137c0.435-1.405,1.261-2.087,2.482-2.048C14.015,6.74,14.44,7.325,14.389,8.466"/>
    </g>
  </symbol>

  <symbol viewBox="0 0 20 20" id="icon-chevron">
    <path d="M13.8,7.8L9.9,11.7L6,7.8c-0.3-0.3-0.7-0.3-0.9,0c-0.3,0.3-0.3,0.7,0,0.9L9.4,13c0.1,0.1,0.3,0.2,0.5,0.2
      c0.2,0,0.3-0.101,0.5-0.2l4.3-4.3C15,8.399,15,8,14.7,7.8S14.101,7.5,13.8,7.8"/>
  </symbol>

  <symbol viewBox="0 0 20 20" id="icon-chevron-o">
    <path d="M10,0C4.5,0,0,4.5,0,10s4.5,10,10,10s10-4.5,10-10C20,4.399,15.5,0,10,0 M10,18.6c-4.8,0-8.7-3.899-8.7-8.7
      C1.3,5.1,5.2,1.2,10,1.2s8.7,3.899,8.7,8.699C18.7,14.7,14.8,18.6,10,18.6"/>
    <path d="M13.8,7.8L9.9,11.7L6,7.8c-0.3-0.3-0.7-0.3-0.9,0c-0.3,0.3-0.3,0.7,0,0.9L9.4,13c0.1,0.1,0.3,0.2,0.5,0.2
      c0.2,0,0.3-0.101,0.5-0.2l4.3-4.3C15,8.399,15,8,14.7,7.8S14.101,7.5,13.8,7.8"/>
  </symbol>

  <symbol viewBox="0 0 20 18.749" id="icon-ingoing">
    <path d="M10,9.999l5-5h-3.75V0h-2.5v4.999H5L10,9.999z M14.545,7.954l-1.401,1.4l5.08,1.896L10,14.316l-8.224-3.067
      l5.079-1.895l-1.401-1.4L0,9.999v5l10,3.75l10-3.75v-5L14.545,7.954z"/>
  </symbol>

  <symbol viewBox="0 0 20 18.75" id="icon-outgoing">
    <path d="M8.75,10h2.5V4.999H15L10,0L5,4.999h3.75V10z M12.5,7.188v1.928l5.725,2.134L10,14.316l-8.224-3.067
      L7.5,9.115V7.188L0,10v4.999l10,3.751l10-3.751V10L12.5,7.188z"/>
  </symbol>

  <symbol viewBox="0 0 20 17.343" id="icon-suitcase">
    <path d="M14.13,1.606C14.13,0.722,13.41,0,12.524,0H7.476C6.59,0,5.87,0.722,5.87,1.606V3.82H4.722v13.522h10.556
      V3.82H14.13V1.606z M7.13,1.606c0-0.191,0.155-0.346,0.346-0.346h5.048c0.19,0,0.346,0.154,0.346,0.346V3.82H7.13V1.606z"/>
    <path d="M0,5.197v10.769c0,0.76,0.616,1.377,1.377,1.377H3.36V3.82H1.377C0.616,3.82,0,4.437,0,5.197"/>
    <path d="M18.623,3.82H16.64v13.521h1.982c0.76,0,1.377-0.615,1.377-1.377V5.197C20,4.437,19.382,3.82,18.623,3.82"/>
  </symbol>

  <symbol viewBox="0 0 20.1 18" id="icon-history">
    <path d="M20.1,9c0,5-4,9-9,9c-2.5,0-4.8-1-6.4-2.7l1.4-1.4c1.3,1.2,3,2,5,2c3.9,0,7-3.1,7-7c0-3.899-3.1-7-7-7
      c-3.4,0-6.3,2.4-6.9,5.601l2.2-0.301l-3.2,4.5L0,7.199L2.1,7.5C2.8,3.199,6.5,0,11,0C16.1,0,20.1,4,20.1,9"/>
    <path d="M14.399,6.1c1.2-0.5,1.9,1.3,0.801,1.8L11.6,9.3l-0.7,2C10.5,12.6,8.6,11.699,9,10.6l0.9-2.4
      C10,8,10.1,7.8,10.4,7.699L14.399,6.1z"/>
  </symbol>

  <symbol viewBox="0 0 20 9.466" id="icon-key">
    <path d="M19.411,4.467H9.458C9.32,1.981,7.253,0,4.733,0C2.123,0,0,2.123,0,4.733c0,2.608,2.123,4.732,4.733,4.732
      c2.297,0,4.216-1.646,4.643-3.818h5.587v1.319c0,0.326,0.264,0.59,0.59,0.59s0.59-0.264,0.59-0.59V5.647h0.736
      c-0.002,0.019-0.006,0.037-0.006,0.058V7.54c0,0.326,0.265,0.59,0.59,0.59c0.326,0,0.59-0.264,0.59-0.59V5.705
      c0-0.021-0.004-0.039-0.006-0.058h1.364C19.736,5.647,20,5.383,20,5.057C20,4.731,19.736,4.467,19.411,4.467 M4.733,8.286
      c-1.959,0-3.553-1.594-3.553-3.553S2.774,1.18,4.733,1.18s3.553,1.595,3.553,3.554S6.692,8.286,4.733,8.286"/>
  </symbol>


  <symbol viewBox="0 0 20 20.675" id="icon-house">
    <polygon points="10,0 6.32,3.68 17.5,14.858 17.5,10 20,10 "/>
    <polygon points="0,2.647 3.676,6.323 0,10 2.5,10 2.5,17.499 8.75,17.499 8.75,12.499 9.852,12.499 11.25,13.897 11.25,17.499
      14.851,17.499 18.027,20.675 19.345,19.355 17.49,17.499 17.5,17.499 17.5,17.497 5.001,4.999 4.994,5.005 1.319,1.329 "/>
  </symbol>

  <symbol viewBox="0 0 20.001 20" id="icon-search">
    <path d="M19.438,16.716l-5.855-5.854c1.578-2.774,1.187-6.373-1.177-8.736c-2.834-2.834-7.446-2.834-10.28,0
      s-2.834,7.446,0,10.28c2.363,2.363,5.962,2.755,8.736,1.177l5.854,5.855c0.75,0.75,1.972,0.75,2.722,0S20.188,17.466,19.438,16.716
      M10.958,10.958c-2.036,2.036-5.348,2.036-7.384,0s-2.036-5.348,0-7.384s5.348-2.036,7.384,0S12.994,8.921,10.958,10.958"/>
  </symbol>

  <symbol viewBox="0 0 264 235" id="icon-exclamation-mark">
    <g>
      <defs>
        <rect id="SVGID_1_" width="264" height="235"/>
      </defs>
      <path d="M20.227,213.773L131.824,20.519l111.602,193.254H20.227z M260.941,203.66L149.34,10.406
        c-3.613-6.254-10.289-10.109-17.516-10.109c-7.222,0-13.902,3.851-17.512,10.109L2.711,203.66c-3.613,6.258-3.613,13.969,0,20.227
        C6.32,230.144,13,234,20.227,234h223.199c7.227,0,13.902-3.856,17.516-10.113C264.555,217.629,264.555,209.918,260.941,203.66z"/>
    </g>
    <rect y="0.297" fill="none" width="264" height="234"/>
    <g>
      <defs>
        <rect id="SVGID_3_" width="264" height="235"/>
      </defs>
      <path d="M117.824,90.148l5.801,66.399c0.34,3.91,3.441,7.133,7.484,7.484
        c4.528,0.398,8.52-2.953,8.918-7.484l5.797-66.399c0.062-0.777,0.07-1.644,0-2.445c-0.676-7.734-7.488-13.453-15.222-12.777
        C122.871,75.601,117.148,82.418,117.824,90.148z"/>
      <path d="M143.426,179.75c0,6.406-5.195,11.598-11.602,11.598s-11.597-5.191-11.597-11.598
        c0-6.41,5.191-11.602,11.597-11.602S143.426,173.34,143.426,179.75z"/>
    </g>
  </symbol>

  <symbol viewBox="-195 343 220 107" id="icon-xero-addon">
    <g>
      <path d="M-28.5,450C1.1,450,25,426,25,396.5S1,343-28.5,343c-29.6,0-53.5,24-53.5,53.5C-82,426.1-58.1,450-28.5,450"/>
      <path style="fill:#00B7E3;" d="M-141.5,450c29.6,0,53.5-24,53.5-53.5s-23.9-53.5-53.5-53.5s-53.5,24-53.5,53.5
        C-195,426.1-171,450-141.5,450"/>
      <path style="fill:#FFFFFF;" d="M-169.4,396.4l9.1-9.2c0.3-0.3,0.5-0.7,0.5-1.2c0-0.9-0.7-1.6-1.6-1.6c-0.4,0-0.9,0.2-1.2,0.5
        l-9.1,9.1l-9.2-9.1c-0.3-0.3-0.7-0.5-1.2-0.5c-0.9,0-1.6,0.7-1.6,1.6c0,0.4,0.2,0.9,0.5,1.2l9.1,9.1l-9.1,9.1
        c-0.3,0.3-0.5,0.7-0.5,1.2c0,0.9,0.7,1.6,1.6,1.6c0.4,0,0.8-0.2,1.2-0.5l9.2-9.1l9.1,9.1c0.3,0.3,0.7,0.5,1.2,0.5
        c0.9,0,1.6-0.7,1.6-1.6c0-0.4-0.2-0.8-0.5-1.2L-169.4,396.4z"/>
      <path style="fill:#FFFFFF;" d="M-115.1,396.4c0,1.6,1.3,3,3,3c1.6,0,3-1.3,3-3c0-1.6-1.3-3-3-3
        C-113.8,393.4-115.1,394.7-115.1,396.4"/>
      <path style="fill:#FFFFFF;" d="M-120.7,396.4c0-4.7,3.9-8.6,8.6-8.6s8.6,3.9,8.6,8.6c0,4.7-3.9,8.6-8.6,8.6
        C-116.9,405-120.7,401.1-120.7,396.4 M-124.1,396.4c0,6.6,5.4,12,12,12s12-5.4,12-12s-5.4-12-12-12S-124.1,389.7-124.1,396.4"/>
      <path style="fill:#FFFFFF;" d="M-125,384.6h-0.5c-1.5,0-3,0.5-4.2,1.4c-0.2-0.7-0.8-1.3-1.6-1.3c-0.9,0-1.6,0.7-1.6,1.6v20.2
        c0,0.9,0.7,1.6,1.6,1.6c0.9,0,1.6-0.7,1.6-1.6v-12.4c0-4.1,0.4-5.8,3.9-6.3c0.3,0,0.7,0,0.7,0c1,0,1.7-0.7,1.7-1.6
        C-123.3,385.3-124.1,384.6-125,384.6"/>
      <path style="fill:#FFFFFF;" d="M-156.4,394.4v-0.1c0.9-3.8,4.4-6.5,8.4-6.5c4.1,0,7.5,2.8,8.4,6.7h-16.8V394.4z M-136.2,394.1
        c-0.7-3.3-2.5-6.1-5.3-7.8c-4.1-2.6-9.4-2.4-13.4,0.4c-3.2,2.3-5.1,6-5.1,9.9c0,1,0.1,1.9,0.4,2.9c1.2,4.8,5.3,8.4,10.2,9
        c1.5,0.2,2.9,0.1,4.3-0.3c1.3-0.3,2.5-0.8,3.6-1.5c1.2-0.7,2.1-1.7,3.1-2.9c0,0,0,0,0.1-0.1c0.7-0.8,0.5-2-0.2-2.5
        c-0.6-0.5-1.6-0.7-2.4,0.4c-0.2,0.2-0.4,0.5-0.6,0.7c-0.6,0.7-1.4,1.4-2.4,1.9c-1.2,0.6-2.6,1-4,1c-4.8-0.1-7.3-3.4-8.2-5.7
        c-0.2-0.4-0.3-0.9-0.4-1.4c0-0.1,0-0.2,0-0.3c1,0,17.1,0,17.1,0C-137.1,397.6-135.9,396-136.2,394.1"/>
      <path style="fill:#FFFFFF;" d="M-55.7,404c-0.6,0-1.2-0.3-1.4-1.1c-0.2-0.7-0.4-1.5-0.5-2.2h-4.8c-0.2,0.7-0.4,1.5-0.5,2.2
        c-0.2,0.8-0.7,1.1-1.3,1.1c-0.8,0-1.6-0.7-1.4-1.7c1-4.3,2.3-8.3,3.9-12.2c0.5-1.2,1.2-1.5,1.8-1.5s1.4,0.2,1.9,1.5
        c1.6,3.9,2.9,7.9,3.9,12.2C-54,403.3-54.9,404-55.7,404 M-60,393c-0.6,1.7-1.2,3.4-1.7,5.1h3.5C-58.8,396.4-59.4,394.7-60,393"/>
      <path style="fill:#FFFFFF;" d="M-47.1,403.8H-51c-0.8,0-1.4-0.6-1.4-1.4v-12.2c0-0.8,0.6-1.4,1.4-1.4h3.9c4.6,0,5.3,3.3,5.3,5.6
        v3.9C-41.8,400.5-42.5,403.8-47.1,403.8 M-44.6,394.4c0-1.8-0.5-2.9-2.7-2.9h-2.3v9.6h2.3c2.1,0,2.7-1.2,2.7-2.9V394.4z"/>
      <path style="fill:#FFFFFF;" d="M-34.1,403.8H-38c-0.8,0-1.4-0.6-1.4-1.4v-12.2c0-0.8,0.6-1.4,1.4-1.4h3.9c4.6,0,5.3,3.3,5.3,5.6
        v3.9C-28.8,400.5-29.5,403.8-34.1,403.8 M-31.6,394.4c0-1.8-0.5-2.9-2.7-2.9h-2.3v9.6h2.3c2.1,0,2.7-1.2,2.7-2.9V394.4z"/>
      <path style="fill:#FFFFFF;" d="M-19.9,399h-5.5c-0.7,0-1.3-0.6-1.3-1.3c0-0.7,0.6-1.3,1.3-1.3h5.5c0.7,0,1.3,0.6,1.3,1.3
        C-18.6,398.4-19.2,399-19.9,399"/>
      <path style="fill:#FFFFFF;" d="M-11.2,404c-4,0-5.4-2.8-5.4-5.6v-4.3c0-2.8,1.3-5.6,5.4-5.6c4,0,5.4,2.7,5.4,5.6v4.3
        C-5.8,401.2-7.2,404-11.2,404 M-8.6,394.1c0-1.7-0.6-3-2.5-3s-2.5,1.2-2.5,3v4.3c0,1.8,0.6,3,2.5,3s2.5-1.3,2.5-3V394.1z"/>
      <path style="fill:#FFFFFF;" d="M5.9,404c-0.6,0-1.1-0.2-1.4-0.7l-5.3-8.8v8.2c0,0.7-0.6,1.3-1.3,1.3s-1.3-0.6-1.3-1.3v-12.8
        c0-0.7,0.5-1.3,1.4-1.3c0.6,0,1.1,0.2,1.4,0.7l5.3,8.8v-8.2c0-0.7,0.6-1.3,1.3-1.3s1.3,0.6,1.3,1.3v12.8C7.3,403.4,6.7,404,5.9,404
        "/>
    </g>
  </symbol>

  <symbol viewBox="0 0 18 18" id="icon-cog">

    <path d="M15.2,6c0.5-1.1,0.8-1.8,0.9-2.2c0.1-0.2,0-0.4-0.1-0.5l-1.3-1.3l-0.1-0.1h-0.2
      c-0.2,0-1,0.3-2.4,0.9l-0.8-0.3c-0.5-1.1-0.8-1.9-0.9-2.2C10.2,0.1,10.1,0,9.9,0H8C7.8,0,7.7,0.1,7.6,0.3c-0.2,0.3-0.5,1-0.9,2.1
      L6,2.8C4.6,2.2,3.8,1.9,3.6,1.9H3.4L2,3.3C1.8,3.4,1.8,3.6,1.9,3.8c0.1,0.3,0.4,1,0.9,2.2L2.5,6.7C1.3,7.2,0.6,7.5,0.3,7.7
      C0.1,7.8,0,7.9,0,8.1V10c0,0.2,0.1,0.3,0.3,0.4c0.3,0.2,1,0.5,2.1,0.9L2.8,12c-0.5,1.1-0.8,1.8-0.9,2.2c-0.1,0.2,0,0.4,0.1,0.5
      l1.3,1.3l0.1,0.1h0.2c0.2,0,1-0.3,2.4-0.9l0.8,0.3c0.4,1.1,0.8,1.9,0.9,2.2C7.8,17.9,7.9,18,8.1,18H10c0.2,0,0.3-0.1,0.4-0.3
      c0.2-0.3,0.5-1,0.9-2.1l0.8-0.3c1.4,0.6,2.2,0.9,2.4,0.9l0.2,0l1.5-1.4c0.1-0.1,0.1-0.3,0.1-0.5c-0.1-0.3-0.4-1-0.9-2.1l0.3-0.8
      c1.1-0.4,1.9-0.8,2.1-0.9c0.2-0.1,0.3-0.3,0.3-0.4V8c0-0.2-0.1-0.3-0.3-0.4c-0.3-0.2-1-0.5-2.2-0.9L15.2,6 M17.2,8.2v1.5
      c-0.3,0.2-1.1,0.5-2.1,0.9L15,10.7L14.4,12l0.1,0.2c0.5,1,0.8,1.7,0.9,2.1l-1.1,1.1c-0.4-0.1-1.1-0.4-2.1-0.9L12,14.4l-1.4,0.6
      l-0.1,0.2c-0.4,1-0.6,1.7-0.8,2.1H8.3c-0.2-0.4-0.5-1.1-0.9-2.1l-0.1-0.2L6,14.4l-0.2,0.1c-0.9,0.4-1.6,0.7-2.1,0.9l-1.1-1.1
      c0.1-0.4,0.4-1.1,0.9-2.1L3.6,12L3,10.7l-0.2-0.1c-1-0.4-1.7-0.7-2.1-0.8V8.3c0.4-0.2,1.1-0.5,2.1-0.9L3,7.3L3.6,6L3.5,5.8
      c-0.5-1-0.8-1.7-0.9-2.1l1-1.1c0.4,0.1,1.1,0.4,2.1,0.9L6,3.6l1.4-0.6l0.1-0.2c0.4-1,0.7-1.7,0.8-2.1h1.5c0.2,0.3,0.5,1,0.9,2.1
      l0.1,0.2L12,3.6l0.1-0.1c1-0.5,1.7-0.8,2.1-0.9l1.1,1c-0.1,0.4-0.4,1.1-0.9,2.1L14.4,6L15,7.3l0.2,0.1C16.1,7.8,16.9,8,17.2,8.2
       M11.1,6.9C10.5,6.3,9.8,6,9,6C8.2,6,7.5,6.3,6.9,6.9C6.3,7.5,6,8.2,6,9c0,0.8,0.3,1.5,0.9,2.1C7.5,11.7,8.2,12,9,12
      c0.8,0,1.5-0.3,2.1-0.9C11.7,10.5,12,9.8,12,9C12,8.2,11.7,7.5,11.1,6.9 M7.4,7.4C7.8,7,8.4,6.7,9,6.7c0.6,0,1.2,0.2,1.6,0.7
      c0.4,0.4,0.7,1,0.7,1.6c0,0.6-0.2,1.1-0.7,1.6c-0.4,0.4-1,0.7-1.6,0.7c-0.6,0-1.2-0.2-1.6-0.7c-0.4-0.4-0.7-1-0.7-1.6
      C6.7,8.4,6.9,7.8,7.4,7.4z"/>

  </symbol>

  <symbol viewBox="0 0 30 30" id="logo-xero">
    <path style="fill:#00B7E3;" d="M15,30c8.3,0,15-6.7,15-15S23.3,0,15,0S0,6.7,0,15C0,23.3,6.7,30,15,30"/>
    <path style="fill:#FFFFFF;" d="M7.2,15l2.6-2.6c0.1-0.1,0.1-0.2,0.1-0.3c0-0.3-0.2-0.4-0.4-0.4c-0.1,0-0.3,0.1-0.3,0.1l-2.6,2.6
      L4,11.7c-0.1-0.1-0.2-0.1-0.3-0.1c-0.3,0-0.4,0.2-0.4,0.4c0,0.1,0.1,0.3,0.1,0.3l2.6,2.6l-2.6,2.6c-0.1,0.1-0.1,0.2-0.1,0.3
      c0,0.3,0.2,0.4,0.4,0.4c0.1,0,0.2-0.1,0.3-0.1l2.6-2.6l2.6,2.6c0.1,0.1,0.2,0.1,0.3,0.1c0.3,0,0.4-0.2,0.4-0.4
      c0-0.1-0.1-0.2-0.1-0.3L7.2,15z"/>
    <path style="fill:#FFFFFF;" d="M22.4,15c0,0.4,0.4,0.8,0.8,0.8c0.4,0,0.8-0.4,0.8-0.8c0-0.4-0.4-0.8-0.8-0.8
      C22.8,14.1,22.4,14.5,22.4,15"/>
    <path style="fill:#FFFFFF;" d="M20.8,15c0-1.3,1.1-2.4,2.4-2.4c1.3,0,2.4,1.1,2.4,2.4c0,1.3-1.1,2.4-2.4,2.4
      C21.9,17.4,20.8,16.3,20.8,15 M19.9,15c0,1.9,1.5,3.4,3.4,3.4c1.9,0,3.4-1.5,3.4-3.4s-1.5-3.4-3.4-3.4C21.4,11.6,19.9,13.1,19.9,15"
      />
    <path style="fill:#FFFFFF;" d="M19.6,11.7h-0.1c-0.4,0-0.8,0.1-1.2,0.4c-0.1-0.2-0.2-0.4-0.4-0.4c-0.3,0-0.4,0.2-0.4,0.4v5.7
      c0,0.3,0.2,0.4,0.4,0.4c0.3,0,0.4-0.2,0.4-0.4v-3.5c0-1.1,0.1-1.6,1.1-1.8c0.1,0,0.2,0,0.2,0c0.3,0,0.5-0.2,0.5-0.4
      C20.1,11.9,19.9,11.7,19.6,11.7"/>
    <path style="fill:#FFFFFF;" d="M10.8,14.4L10.8,14.4c0.3-1.1,1.2-1.9,2.4-1.9c1.1,0,2.1,0.8,2.4,1.9L10.8,14.4L10.8,14.4z
       M16.5,14.3c-0.2-0.9-0.7-1.7-1.5-2.2c-1.1-0.7-2.6-0.7-3.8,0.1c-0.9,0.6-1.4,1.7-1.4,2.8c0,0.3,0,0.5,0.1,0.8
      c0.3,1.3,1.5,2.4,2.9,2.5c0.4,0.1,0.8,0,1.2-0.1c0.4-0.1,0.7-0.2,1-0.4c0.3-0.2,0.6-0.5,0.9-0.8c0,0,0,0,0,0
      c0.2-0.2,0.1-0.6-0.1-0.7c-0.2-0.1-0.4-0.2-0.7,0.1c-0.1,0.1-0.1,0.1-0.2,0.2c-0.2,0.2-0.4,0.4-0.7,0.5c-0.3,0.2-0.7,0.3-1.1,0.3
      c-1.3,0-2-1-2.3-1.6c-0.1-0.1-0.1-0.3-0.1-0.4c0,0,0-0.1,0-0.1c0.3,0,4.8,0,4.8,0C16.2,15.3,16.6,14.9,16.5,14.3"/>
  </symbol>

  <symbol viewBox="0 0 15.1 18" id="icon-update-profile">
    <path d="M3.1,9.8c0,0.1,0,0.3,0,0.4h6.5V9.8H3.1z"/>
    <path d="M3.1,11.4c0,0.1,0,0.3,0,0.4h5.6c0.1-0.1,0.3-0.3,0.4-0.4H3.1z"/>
    <path d="M0,0c0,5.6,0,11.2,0,16.8h8.4c-0.1-0.1-0.2-0.3-0.3-0.4H0.4v-16h11.9v10.2c0.1,0,0.3,0.1,0.4,0.1V0
      L0,0z"/>
    <path d="M3.1,13c0,0.1,0,0.3,0,0.4h4.7c0-0.1,0.1-0.3,0.1-0.4H3.1z"/>
    <path d="M11.6,11.1c-1.9,0-3.4,1.5-3.4,3.4v0c0,1.9,1.5,3.4,3.4,3.4c1.9,0,3.4-1.5,3.4-3.4
      C15.1,12.6,13.5,11.1,11.6,11.1L11.6,11.1L11.6,11.1z M12.4,13.1l0.7,0.7l-1.9,1.9L10.1,16l0.4-1.1L12.4,13.1L12.4,13.1z"/>
    <g>
      <g id="_x32_4_1_">
        <g>
          <path style="stroke-width:0.25;stroke-miterlimit:10;" d="M8.5,7.4L8.3,7C8.2,6.7,7.9,6.6,7.6,6.5
            c-0.1,0-0.3,0-0.4-0.1C7,6.4,7,6.4,6.9,6.4c0,0,0-0.1,0.1-0.1c0.3-0.2,0.5-0.6,0.5-1.1c0-0.7-0.5-1.3-1.1-1.3S5.3,4.5,5.3,5.2
            c0,0.4,0.2,0.8,0.5,1.1c0,0,0,0.1,0.1,0.1c0,0-0.1,0-0.2,0.1c-0.2,0-0.3,0.1-0.4,0.1C4.9,6.6,4.5,6.7,4.4,7L4.2,7.4
            c-0.1,0.1-0.1,0.3,0,0.4C4.3,8,4.4,8.1,4.6,8.1h3.6c0.1,0,0.3-0.1,0.4-0.2C8.6,7.8,8.6,7.6,8.5,7.4z M8.4,7.8
            c0,0.1-0.1,0.1-0.2,0.1H4.6c-0.1,0-0.2-0.1-0.2-0.1c0-0.1,0-0.2,0-0.2l0.2-0.4C4.7,6.9,5,6.8,5.2,6.8c0.1,0,0.3-0.1,0.5-0.1
            C5.9,6.6,6,6.6,6,6.5c0,0,0,0,0-0.1c0-0.1,0-0.2-0.1-0.3c0,0,0,0,0,0C5.6,5.9,5.5,5.6,5.5,5.2c0-0.6,0.4-1.1,0.9-1.1
            c0.5,0,0.9,0.5,0.9,1.1c0,0.4-0.2,0.7-0.4,0.9c0,0,0,0,0,0C6.8,6.3,6.7,6.4,6.7,6.5c0,0,0,0.1,0,0.1c0,0,0.1,0.1,0.4,0.1
            c0.2,0,0.4,0.1,0.5,0.1c0.2,0,0.5,0.2,0.6,0.4l0.2,0.4C8.4,7.6,8.4,7.7,8.4,7.8z"/>
        </g>
      </g>
    </g>
  </symbol>

  <symbol viewBox="0 0 14 13.5" id="icon-logout">
      <path d="M8.8,11.9H1.6V1.6h7.2c0.2,0,0.3-0.1,0.3-0.3V0.3C9.1,0.1,9,0,8.8,0H0.3C0.1,0,0,0.1,0,0.3v12.9c0,0.2,0.1,0.3,0.3,0.3h8.5
        c0.2,0,0.3-0.1,0.3-0.3v-1.1C9.1,12,9,11.9,8.8,11.9"/>
      <path d="M13.9,6.6L10,2.7c-0.1-0.1-0.3-0.1-0.4,0L8.7,3.6C8.6,3.7,8.6,3.9,8.7,4l1.8,1.8H2.9C2.7,5.8,2.6,5.9,2.6,6v1.4
        c0,0.2,0.1,0.3,0.3,0.3h7.6L8.7,9.5c-0.1,0.1-0.1,0.3,0,0.4l0.9,0.9c0.1,0.1,0.1,0.1,0.2,0.1c0.1,0,0.1,0,0.2-0.1L13.9,7
        C14,6.9,14,6.8,14,6.8C14,6.7,14,6.6,13.9,6.6"/>
  </symbol>

  <symbol viewBox="0 0 18 18" id="icon-dollar-o">
    <path d="M9,0C4,0,0,4,0,9s4,9,9,9s9-4,9-9S14,0,9,0z M9,16.9c-4.3,0-7.9-3.5-7.9-7.9S4.7,1.1,9,1.1
      s7.9,3.5,7.9,7.9S13.3,16.9,9,16.9z M11.8,9.3c0.2,0.4,0.3,0.8,0.3,1.3c0,0.7-0.2,1.4-0.7,1.9c-0.4,0.5-1.1,0.8-1.9,0.9v1.3H8.5
      v-1.3c-1.4-0.1-2.3-1-2.6-2.4l1.6-0.4c0.2,0.9,0.7,1.4,1.5,1.4c0.4,0,0.7-0.1,0.9-0.3s0.3-0.4,0.3-0.7c0-0.3-0.1-0.5-0.3-0.7
      c-0.2-0.2-0.6-0.3-1.3-0.6C8.1,9.4,7.6,9.2,7.3,9C7,8.8,6.7,8.6,6.5,8.2C6.3,7.8,6.2,7.4,6.2,7c0-0.6,0.2-1.2,0.6-1.7
      c0.4-0.5,0.9-0.8,1.7-0.9v-1h1.1v1c1.2,0.1,2,0.8,2.3,2L10.4,7c-0.3-0.8-0.7-1.2-1.3-1.2C8.8,5.7,8.5,5.8,8.3,6
      C8.1,6.2,8.1,6.4,8.1,6.7c0,0.3,0.1,0.5,0.3,0.6c0.2,0.1,0.6,0.3,1.1,0.5c0.6,0.2,1.1,0.4,1.5,0.7C11.3,8.7,11.6,9,11.8,9.3z"/>
  </symbol>

  <symbol viewBox="0 0 16 9.9" id="icon-arrow">
    <path d="M0,5.6h13.6l-3.5,3.5L11,9.9l5-5l-5-5l-0.9,0.9l3.5,3.5H0L0,5.6z"/>
  </symbol>

  <symbol viewBox="0 0 18 16.9" id="icon-incoming">
    <path d="M9,9l4.5-4.5h-3.4V0H7.9v4.5H4.5L9,9z M13.1,7.2l-1.3,1.3l4.6,1.7L9,12.9l-7.4-2.8l4.6-1.7L4.9,7.2
      L0,9v4.5l9,3.4l9-3.4V9L13.1,7.2z"/>
  </symbol>

  <symbol viewBox="0 0 18 16.9" id="icon-outgoing">
    <path d="M7.9,9h2.2V4.5h3.4L9,0L4.5,4.5h3.4V9z M11.2,6.5v1.7l5.2,1.9L9,12.9l-7.4-2.8l5.2-1.9V6.5L0,9v4.5
    l9,3.4l9-3.4V9L11.2,6.5z"/>
  </symbol>

  <symbol viewBox="0 0 18 21.4" id="icon-bank">
    <path d="M9,0C6.7,0,4.8,1.9,4.8,4.2c0,2.3,1.9,4.2,4.2,4.2c2.3,0,4.2-1.9,4.2-4.2C13.2,1.9,11.3,0,9,0z
       M9,0.9c0.1,0,0.2,0.1,0.2,0.2v0.5c0.2,0,0.5,0.1,0.7,0.1C10,1.8,10.2,2,10.3,2.1c0.1,0.1,0.2,0.2,0.2,0.4c0.1,0.1,0.1,0.2,0.1,0.3
      c0,0.1,0,0.2-0.1,0.3c-0.1,0.1-0.2,0.1-0.3,0.1c-0.2,0-0.4-0.1-0.4-0.4C9.7,2.6,9.5,2.4,9.2,2.3c0,0,0,0,0,0v1.4h0
      c0.3,0.1,0.5,0.2,0.7,0.2c0.2,0.1,0.3,0.2,0.5,0.3c0.1,0.1,0.3,0.3,0.3,0.4c0.1,0.2,0.1,0.4,0.1,0.6c0,0.3-0.1,0.5-0.2,0.7
      c-0.1,0.2-0.3,0.4-0.5,0.6C9.8,6.7,9.5,6.8,9.2,6.8v0.5c0,0.1-0.1,0.2-0.2,0.2c-0.1,0-0.2-0.1-0.2-0.2V6.8c-0.3,0-0.5-0.1-0.7-0.2
      C7.9,6.5,7.7,6.4,7.6,6.3C7.5,6.1,7.4,6,7.3,5.8C7.2,5.7,7.2,5.5,7.2,5.4c0-0.1,0-0.2,0.1-0.3C7.4,5,7.5,4.9,7.6,4.9
      c0.1,0,0.2,0,0.3,0.1C8,5,8,5.1,8.1,5.2c0.1,0.2,0.1,0.3,0.2,0.4c0,0.1,0.1,0.2,0.2,0.3C8.5,6,8.6,6.1,8.8,6.1c0,0,0,0,0,0V4.5
      C8.5,4.4,8.2,4.3,8,4.2C7.8,4.1,7.7,4,7.5,3.8C7.4,3.6,7.3,3.3,7.3,3c0-0.4,0.1-0.7,0.4-1C8,1.8,8.4,1.7,8.8,1.6V1.1
      C8.8,1,8.9,0.9,9,0.9z M8.8,2.3c-0.2,0-0.3,0.1-0.4,0.2C8.2,2.6,8.2,2.8,8.2,2.9c0,0.2,0,0.3,0.1,0.4c0.1,0.1,0.3,0.2,0.5,0.3V2.3z
       M9.2,4.6v1.5c0,0,0,0,0,0c0.2,0,0.4-0.1,0.5-0.3C9.9,5.7,10,5.5,10,5.4C10,5.2,9.9,5,9.8,4.9C9.6,4.8,9.5,4.7,9.2,4.6L9.2,4.6z
       M4.6,6.2L0.3,9.1C0.2,9.2,0.1,9.3,0,9.4c0,0.1,0,0.2,0,0.4c0.1,0.2,0.3,0.4,0.5,0.4h16.9c0.2,0,0.5-0.2,0.5-0.4c0-0.1,0-0.2,0-0.4
      c0-0.1-0.1-0.2-0.2-0.3l-4.4-2.9c0,0.1-0.1,0.1-0.1,0.2c-0.9,1.8-3.1,2.8-5.1,2.5C6.6,8.7,5.3,7.6,4.6,6.2z M1.2,11
      c-0.2,0-0.3,0.1-0.3,0.3v7.3c0,0.2,0.1,0.3,0.3,0.3h1.3c0.2,0,0.3-0.1,0.3-0.3v-7.3c0-0.2-0.1-0.3-0.3-0.3H1.2z M6,11
      c-0.2,0-0.3,0.1-0.3,0.3v7.3c0,0.2,0.1,0.3,0.3,0.3h1.3c0.2,0,0.3-0.1,0.3-0.3v-7.3c0-0.2-0.1-0.3-0.3-0.3H6z M10.8,11
      c-0.2,0-0.3,0.1-0.3,0.3v7.3c0,0.2,0.1,0.3,0.3,0.3H12c0.2,0,0.3-0.1,0.3-0.3v-7.3c0-0.2-0.1-0.3-0.3-0.3H10.8z M15.6,11
      c-0.2,0-0.3,0.1-0.3,0.3v7.3c0,0.2,0.1,0.3,0.3,0.3h1.3c0.2,0,0.3-0.1,0.3-0.3v-7.3c0-0.2-0.1-0.3-0.3-0.3H15.6z M0.2,19.6
      c-0.1,0-0.2,0.1-0.2,0.3v1.2c0,0.2,0.1,0.3,0.3,0.3h17.4c0.2,0,0.3-0.1,0.3-0.3v-1.2c0-0.2-0.1-0.3-0.3-0.3H0.2
      C0.3,19.6,0.3,19.6,0.2,19.6z"/>
  </symbol>

  <symbol viewBox="0 0 18 14" id="icon-dashboard">
    <path d="M16.5,13H1.4c-0.4,0-0.7-0.3-0.7-0.7V2.9c0-0.4,0.3-0.7,0.7-0.7h15.1c0.4,0,0.7,0.3,0.7,0.7v9.4C17.2,12.7,16.9,13,16.5,13
       M17.3,1.1H6C5.7,0.8,5.5,0,5.3,0H2.2C1.9,0,1.7,0.8,1.5,1.1H0.7C0.3,1.1,0,1.4,0,1.7v11.6C0,13.7,0.3,14,0.7,14h16.6
      c0.4,0,0.7-0.3,0.7-0.7V1.7C18,1.4,17.7,1.1,17.3,1.1"/>
    <path d="M4.9,9.4v-3h3c0-1.7-1.3-3-3-3s-3,1.3-3,3C1.9,8.1,3.2,9.4,4.9,9.4"/>
    <path d="M5.4,10c1.7,0,3-1.3,3-3h-3V10z"/>
    <rect x="12.8" y="5.4" width="1.3" height="3.9"/>
    <rect x="14.7" y="4.1" width="1.3" height="5.2"/>
    <rect x="10.8" y="6.7" width="1.3" height="2.6"/>
    <rect x="2.1" y="11.2" width="14.1" height="0.6"/>
  </symbol>

  <symbol viewBox="0 0 18 18" id="icon-check">
    <path d="M16.2,9c0,4-3.2,7.2-7.2,7.2C5,16.2,1.8,13,1.8,9C1.8,5,5,1.8,9,1.8c0.7,0,1.3,0.1,2,0.3l1.4-1.4C11.3,0.3,10.2,0,9,0
      C4.1,0,0,4.1,0,9s4.1,9,9,9s9-4.1,9-9H16.2z M5.3,7.3L4.1,8.6l4,4l9-9l-1.3-1.3l-7.7,7.7L5.3,7.3z"/>
  </symbol>


  <symbol viewBox="0 0 16.6 16.6" id="icon-unlink">
    <path d="M8.4,11.8l2.3-2.3c0.2-0.2,0.2-0.5,0-0.7c-0.2-0.2-0.5-0.2-0.7,0l-2.3,2.3L5.5,8.9l2.3-2.3
      c0.2-0.2,0.2-0.5,0-0.7C7.5,5.7,7.2,5.7,7,5.9L4.8,8.2L4,7.4L2.6,8.8c-1.3,1.3-1.4,3.2-0.5,4.6L0,15.6l1,1l2.1-2.1
      c1.4,0.9,3.4,0.8,4.6-0.5l1.4-1.4L8.4,11.8z"/>
    <path d="M12.6,9.2L14,7.8c1.3-1.3,1.4-3.2,0.5-4.6L16.6,1l-1-1l-2.1,2.1C12,1.2,10.1,1.3,8.8,2.6L7.4,4
      C12.5,9.1,7.5,4,12.6,9.2z"/>
  </symbol>

  <symbol viewBox="0 0 1 100" id="vertical-line">
    <path fill-rule="evenodd" clip-rule="evenodd" fill="none" d="M0,0h1v100H0V0z"/>
  </symbol>



</svg>
